Groote-Romyn-18.ufo
<glyph name="ampersand" format="2">
  <advance width="860"/>
  <unicode hex="0026"/>
  <outline>
    <contour>
      <point x="240" y="-15" type="curve"/>
      <point x="312" y="-15"/>
      <point x="396" y="31"/>
      <point x="442" y="95" type="curve" smooth="yes"/>
      <point x="494" y="167" type="line"/>
      <point x="480" y="199" type="line"/>
      <point x="418" y="113" type="line" smooth="yes"/>
      <point x="389" y="73"/>
      <point x="326" y="53"/>
      <point x="279" y="53" type="curve" smooth="yes"/>
      <point x="211" y="53"/>
      <point x="148" y="128"/>
      <point x="148" y="215" type="curve" smooth="yes"/>
      <point x="148" y="364"/>
      <point x="438" y="406"/>
      <point x="438" y="542" type="curve" smooth="yes"/>
      <point x="438" y="615"/>
      <point x="382" y="666"/>
      <point x="304" y="666" type="curve" smooth="yes"/>
      <point x="203" y="666"/>
      <point x="132" y="612"/>
      <point x="132" y="536" type="curve" smooth="yes"/>
      <point x="132" y="496"/>
      <point x="145" y="456"/>
      <point x="179" y="424" type="curve" smooth="yes"/>
      <point x="216" y="390"/>
      <point x="391" y="235"/>
      <point x="408" y="218" type="curve" smooth="yes"/>
      <point x="441" y="185"/>
      <point x="475" y="124"/>
      <point x="500" y="72" type="curve" smooth="yes"/>
      <point x="523" y="24"/>
      <point x="585" y="-10"/>
      <point x="636" y="-10" type="curve" smooth="yes"/>
      <point x="686" y="-10"/>
      <point x="756" y="23"/>
      <point x="806" y="70" type="curve"/>
      <point x="791" y="91" type="line"/>
      <point x="759" y="66"/>
      <point x="714" y="49"/>
      <point x="682" y="49" type="curve" smooth="yes"/>
      <point x="648" y="49"/>
      <point x="606" y="76"/>
      <point x="584" y="115" type="curve" smooth="yes"/>
      <point x="543" y="188"/>
      <point x="502" y="254"/>
      <point x="450" y="302" type="curve" smooth="yes"/>
      <point x="369" y="377"/>
      <point x="306" y="421"/>
      <point x="266" y="459" type="curve" smooth="yes"/>
      <point x="232" y="489"/>
      <point x="203" y="527"/>
      <point x="203" y="556" type="curve" smooth="yes"/>
      <point x="203" y="600"/>
      <point x="239" y="639"/>
      <point x="284" y="639" type="curve" smooth="yes"/>
      <point x="334" y="639"/>
      <point x="369" y="596"/>
      <point x="369" y="535" type="curve" smooth="yes"/>
      <point x="369" y="402"/>
      <point x="54" y="348"/>
      <point x="54" y="176" type="curve"/>
      <point x="54" y="64"/>
      <point x="123" y="-15"/>
    </contour>
    <contour>
      <point x="494" y="159" type="line"/>
      <point x="637" y="364" type="line"/>
      <point x="654" y="388"/>
      <point x="696" y="405"/>
      <point x="738" y="405" type="curve" smooth="yes"/>
      <point x="786" y="405" type="line"/>
      <point x="786" y="433" type="line"/>
      <point x="539" y="433" type="line"/>
      <point x="539" y="405" type="line"/>
      <point x="545" y="405"/>
      <point x="560" y="405"/>
      <point x="588" y="405" type="curve" smooth="yes"/>
      <point x="599" y="405"/>
      <point x="606" y="398"/>
      <point x="606" y="389" type="curve" smooth="yes"/>
      <point x="606" y="379"/>
      <point x="596" y="358"/>
      <point x="581" y="338" type="curve"/>
      <point x="480" y="191" type="line"/>
    </contour>
  </outline>
</glyph>
<glyph name="asterisk" format="2">
  <advance width="768"/>
  <unicode hex="002A"/>
  <outline>
    <contour>
      <point x="374" y="330" type="curve" smooth="yes"/>
      <point x="393" y="330" type="line"/>
      <point x="393" y="349"/>
      <point x="446" y="462"/>
      <point x="446" y="504" type="curve" smooth="yes"/>
      <point x="446" y="548"/>
      <point x="418" y="579"/>
      <point x="377" y="579" type="curve" smooth="yes"/>
      <point x="337" y="579"/>
      <point x="308" y="549"/>
      <point x="308" y="507" type="curve" smooth="yes"/>
      <point x="308" y="473"/>
      <point x="374" y="351"/>
    </contour>
    <contour>
      <point x="388" y="366" type="curve" smooth="yes"/>
      <point x="388" y="363"/>
      <point x="382" y="366"/>
      <point x="378" y="366" type="curve"/>
      <point x="378" y="390"/>
      <point x="336" y="479"/>
      <point x="336" y="503" type="curve" smooth="yes"/>
      <point x="336" y="541"/>
      <point x="359" y="552"/>
      <point x="375" y="552" type="curve" smooth="yes"/>
      <point x="395" y="552"/>
      <point x="419" y="541"/>
      <point x="419" y="504" type="curve" smooth="yes"/>
      <point x="419" y="468"/>
      <point x="388" y="390"/>
    </contour>
    <contour>
      <point x="437" y="313" type="curve" smooth="yes"/>
      <point x="450" y="300" type="line"/>
      <point x="464" y="314"/>
      <point x="581" y="356"/>
      <point x="611" y="386" type="curve"/>
      <point x="642" y="417"/>
      <point x="644" y="459"/>
      <point x="615" y="488" type="curve" smooth="yes"/>
      <point x="587" y="516"/>
      <point x="545" y="515"/>
      <point x="515" y="485" type="curve" smooth="yes"/>
      <point x="492" y="462"/>
      <point x="452" y="329"/>
    </contour>
    <contour>
      <point x="473" y="329" type="curve" smooth="yes"/>
      <point x="471" y="327"/>
      <point x="468" y="334"/>
      <point x="466" y="336" type="curve"/>
      <point x="482" y="353"/>
      <point x="515" y="446"/>
      <point x="533" y="463" type="curve" smooth="yes"/>
      <point x="559" y="489"/>
      <point x="583" y="481"/>
      <point x="594" y="470" type="curve" smooth="yes"/>
      <point x="609" y="456"/>
      <point x="618" y="431"/>
      <point x="592" y="405" type="curve" smooth="yes"/>
      <point x="566" y="380"/>
      <point x="489" y="346"/>
    </contour>
    <contour>
      <point x="467" y="254" type="curve" smooth="yes"/>
      <point x="467" y="235" type="line"/>
      <point x="486" y="235"/>
      <point x="599" y="182"/>
      <point x="641" y="182" type="curve" smooth="yes"/>
      <point x="685" y="182"/>
      <point x="716" y="210"/>
      <point x="716" y="251" type="curve" smooth="yes"/>
      <point x="716" y="291"/>
      <point x="686" y="320"/>
      <point x="644" y="320" type="curve" smooth="yes"/>
      <point x="610" y="320"/>
      <point x="488" y="254"/>
    </contour>
    <contour>
      <point x="503" y="240" type="curve" smooth="yes"/>
      <point x="500" y="240"/>
      <point x="503" y="246"/>
      <point x="503" y="250" type="curve"/>
      <point x="527" y="250"/>
      <point x="616" y="292"/>
      <point x="640" y="292" type="curve" smooth="yes"/>
      <point x="678" y="292"/>
      <point x="689" y="269"/>
      <point x="689" y="253" type="curve" smooth="yes"/>
      <point x="689" y="233"/>
      <point x="678" y="209"/>
      <point x="641" y="209" type="curve" smooth="yes"/>
      <point x="605" y="209"/>
      <point x="527" y="240"/>
    </contour>
    <contour>
      <point x="450" y="194" type="curve" smooth="yes"/>
      <point x="437" y="181" type="line"/>
      <point x="451" y="167"/>
      <point x="493" y="49"/>
      <point x="523" y="19" type="curve" smooth="yes"/>
      <point x="554" y="-12"/>
      <point x="596" y="-14"/>
      <point x="625" y="15" type="curve" smooth="yes"/>
      <point x="653" y="44"/>
      <point x="652" y="85"/>
      <point x="622" y="115" type="curve" smooth="yes"/>
      <point x="599" y="139"/>
      <point x="466" y="178"/>
    </contour>
    <contour>
      <point x="466" y="158" type="curve" smooth="yes"/>
      <point x="464" y="160"/>
      <point x="471" y="162"/>
      <point x="473" y="165" type="curve"/>
      <point x="490" y="148"/>
      <point x="583" y="115"/>
      <point x="600" y="98" type="curve" smooth="yes"/>
      <point x="626" y="71"/>
      <point x="618" y="47"/>
      <point x="607" y="36" type="curve" smooth="yes"/>
      <point x="593" y="22"/>
      <point x="568" y="13"/>
      <point x="542" y="39" type="curve" smooth="yes"/>
      <point x="517" y="64"/>
      <point x="483" y="141"/>
    </contour>
    <contour>
      <point x="394" y="163" type="curve" smooth="yes"/>
      <point x="376" y="163" type="line"/>
      <point x="376" y="143"/>
      <point x="322" y="31"/>
      <point x="322" y="-12" type="curve" smooth="yes"/>
      <point x="322" y="-56"/>
      <point x="351" y="-87"/>
      <point x="391" y="-87" type="curve" smooth="yes"/>
      <point x="432" y="-87"/>
      <point x="460" y="-57"/>
      <point x="460" y="-14" type="curve" smooth="yes"/>
      <point x="460" y="19"/>
      <point x="394" y="141"/>
    </contour>
    <contour>
      <point x="380" y="126" type="curve" smooth="yes"/>
      <point x="380" y="129"/>
      <point x="387" y="126"/>
      <point x="390" y="126" type="curve"/>
      <point x="390" y="103"/>
      <point x="432" y="14"/>
      <point x="432" y="-11" type="curve" smooth="yes"/>
      <point x="432" y="-48"/>
      <point x="409" y="-59"/>
      <point x="394" y="-59" type="curve" smooth="yes"/>
      <point x="373" y="-59"/>
      <point x="350" y="-49"/>
      <point x="350" y="-12" type="curve" smooth="yes"/>
      <point x="350" y="24"/>
      <point x="380" y="103"/>
    </contour>
    <contour>
      <point x="332" y="179" type="curve" smooth="yes"/>
      <point x="319" y="192" type="line"/>
      <point x="305" y="178"/>
      <point x="187" y="137"/>
      <point x="157" y="107" type="curve"/>
      <point x="126" y="75"/>
      <point x="124" y="33"/>
      <point x="153" y="5" type="curve" smooth="yes"/>
      <point x="182" y="-24"/>
      <point x="223" y="-23"/>
      <point x="253" y="7" type="curve" smooth="yes"/>
      <point x="277" y="31"/>
      <point x="316" y="164"/>
    </contour>
    <contour>
      <point x="296" y="163" type="curve" smooth="yes"/>
      <point x="298" y="165"/>
      <point x="300" y="159"/>
      <point x="303" y="156" type="curve"/>
      <point x="286" y="139"/>
      <point x="253" y="47"/>
      <point x="236" y="30" type="curve" smooth="yes"/>
      <point x="209" y="3"/>
      <point x="185" y="12"/>
      <point x="174" y="22" type="curve" smooth="yes"/>
      <point x="160" y="37"/>
      <point x="151" y="61"/>
      <point x="177" y="87" type="curve" smooth="yes"/>
      <point x="202" y="113"/>
      <point x="279" y="147"/>
    </contour>
    <contour>
      <point x="302" y="239" type="curve" smooth="yes"/>
      <point x="302" y="257" type="line"/>
      <point x="282" y="257"/>
      <point x="170" y="311"/>
      <point x="127" y="311" type="curve" smooth="yes"/>
      <point x="83" y="311"/>
      <point x="52" y="282"/>
      <point x="52" y="242" type="curve" smooth="yes"/>
      <point x="52" y="201"/>
      <point x="82" y="173"/>
      <point x="125" y="173" type="curve" smooth="yes"/>
      <point x="158" y="173"/>
      <point x="280" y="239"/>
    </contour>
    <contour>
      <point x="265" y="253" type="curve" smooth="yes"/>
      <point x="268" y="253"/>
      <point x="265" y="246"/>
      <point x="265" y="243" type="curve"/>
      <point x="242" y="243"/>
      <point x="153" y="201"/>
      <point x="128" y="201" type="curve" smooth="yes"/>
      <point x="91" y="201"/>
      <point x="80" y="224"/>
      <point x="80" y="239" type="curve" smooth="yes"/>
      <point x="80" y="260"/>
      <point x="90" y="283"/>
      <point x="127" y="283" type="curve" smooth="yes"/>
      <point x="163" y="283"/>
      <point x="242" y="253"/>
    </contour>
    <contour>
      <point x="318" y="299" type="curve" smooth="yes"/>
      <point x="331" y="312" type="line"/>
      <point x="317" y="326"/>
      <point x="276" y="443"/>
      <point x="246" y="473" type="curve" smooth="yes"/>
      <point x="214" y="504"/>
      <point x="172" y="506"/>
      <point x="144" y="477" type="curve" smooth="yes"/>
      <point x="115" y="449"/>
      <point x="116" y="407"/>
      <point x="146" y="377" type="curve" smooth="yes"/>
      <point x="170" y="354"/>
      <point x="303" y="314"/>
    </contour>
    <contour>
      <point x="302" y="335" type="curve" smooth="yes"/>
      <point x="304" y="333"/>
      <point x="298" y="330"/>
      <point x="295" y="328" type="curve"/>
      <point x="278" y="344"/>
      <point x="186" y="377"/>
      <point x="169" y="395" type="curve" smooth="yes"/>
      <point x="142" y="421"/>
      <point x="151" y="445"/>
      <point x="161" y="456" type="curve" smooth="yes"/>
      <point x="176" y="471"/>
      <point x="200" y="480"/>
      <point x="226" y="454" type="curve" smooth="yes"/>
      <point x="252" y="428"/>
      <point x="286" y="351"/>
    </contour>
  </outline>
</glyph>
<glyph name="comma" format="2">
  <advance width="282"/>
  <unicode hex="002C"/>
  <outline>
    <contour>
      <point x="65" y="-140" type="curve"/>
      <point x="77" y="-170" type="line"/>
      <point x="160" y="-136"/>
      <point x="218" y="-56"/>
      <point x="218" y="23" type="curve" smooth="yes"/>
      <point x="218" y="74"/>
      <point x="179" y="115"/>
      <point x="124" y="115" type="curve" smooth="yes"/>
      <point x="84" y="115"/>
      <point x="55" y="88"/>
      <point x="55" y="56" type="curve" smooth="yes"/>
      <point x="55" y="31"/>
      <point x="71" y="8"/>
      <point x="93" y="8" type="curve" smooth="yes"/>
      <point x="113" y="8"/>
      <point x="116" y="16"/>
      <point x="133" y="16" type="curve" smooth="yes"/>
      <point x="148" y="16"/>
      <point x="158" y="-2"/>
      <point x="158" y="-27" type="curve" smooth="yes"/>
      <point x="158" y="-82"/>
      <point x="119" y="-126"/>
    </contour>
  </outline>
</glyph>
<glyph name="hyphen" format="2">
  <advance width="360"/>
  <unicode hex="002D"/>
  <outline>
    <contour>
      <point x="53" y="161" type="line"/>
      <point x="307" y="166" type="line"/>
      <point x="310" y="253" type="line"/>
      <point x="260" y="253" type="line"/>
      <point x="91" y="228" type="line"/>
      <point x="50" y="216" type="line"/>
    </contour>
  </outline>
</glyph>
<glyph name="period" format="2">
  <advance width="258"/>
  <unicode hex="002E"/>
  <outline>
    <contour>
      <point x="129" y="-2" type="curve" smooth="yes"/>
      <point x="165" y="-2"/>
      <point x="194" y="27"/>
      <point x="194" y="63" type="curve" smooth="yes"/>
      <point x="194" y="99"/>
      <point x="165" y="128"/>
      <point x="129" y="128" type="curve" smooth="yes"/>
      <point x="93" y="128"/>
      <point x="64" y="99"/>
      <point x="64" y="63" type="curve" smooth="yes"/>
      <point x="64" y="27"/>
      <point x="93" y="-2"/>
    </contour>
  </outline>
</glyph>
<glyph name="colon" format="2">
  <advance width="278"/>
  <unicode hex="003A"/>
  <outline>
    <contour>
      <point x="149" y="222" type="curve" smooth="yes"/>
      <point x="185" y="222"/>
      <point x="214" y="243"/>
      <point x="214" y="269" type="curve" smooth="yes"/>
      <point x="214" y="295"/>
      <point x="185" y="316"/>
      <point x="149" y="316" type="curve" smooth="yes"/>
      <point x="113" y="316"/>
      <point x="84" y="295"/>
      <point x="84" y="269" type="curve" smooth="yes"/>
      <point x="84" y="243"/>
      <point x="113" y="222"/>
    </contour>
    <contour>
      <point x="129" y="-2" type="curve" smooth="yes"/>
      <point x="165" y="-2"/>
      <point x="194" y="19"/>
      <point x="194" y="45" type="curve" smooth="yes"/>
      <point x="194" y="71"/>
      <point x="165" y="92"/>
      <point x="129" y="92" type="curve" smooth="yes"/>
      <point x="93" y="92"/>
      <point x="64" y="71"/>
      <point x="64" y="45" type="curve" smooth="yes"/>
      <point x="64" y="19"/>
      <point x="93" y="-2"/>
    </contour>
  </outline>
</glyph>
<glyph name="semicolon" format="2">
  <advance width="295"/>
  <unicode hex="003B"/>
  <outline>
    <contour>
      <point x="74" y="-140" type="curve"/>
      <point x="86" y="-170" type="line"/>
      <point x="163" y="-139"/>
      <point x="217" y="-59"/>
      <point x="217" y="23" type="curve" smooth="yes"/>
      <point x="217" y="71"/>
      <point x="182" y="105"/>
      <point x="133" y="105" type="curve" smooth="yes"/>
      <point x="93" y="105"/>
      <point x="64" y="85"/>
      <point x="64" y="56" type="curve" smooth="yes"/>
      <point x="64" y="28"/>
      <point x="80" y="8"/>
      <point x="102" y="8" type="curve" smooth="yes"/>
      <point x="122" y="8"/>
      <point x="125" y="16"/>
      <point x="142" y="16" type="curve" smooth="yes"/>
      <point x="157" y="16"/>
      <point x="167" y="-2"/>
      <point x="167" y="-27" type="curve" smooth="yes"/>
      <point x="167" y="-79"/>
      <point x="128" y="-126"/>
    </contour>
    <contour>
      <point x="173" y="217" type="curve" smooth="yes"/>
      <point x="205" y="217"/>
      <point x="231" y="237"/>
      <point x="231" y="262" type="curve" smooth="yes"/>
      <point x="231" y="286"/>
      <point x="205" y="306"/>
      <point x="173" y="306" type="curve" smooth="yes"/>
      <point x="141" y="306"/>
      <point x="115" y="286"/>
      <point x="115" y="262" type="curve" smooth="yes"/>
      <point x="115" y="237"/>
      <point x="141" y="217"/>
    </contour>
  </outline>
</glyph>
<glyph name="A" format="2">
  <advance width="787"/>
  <unicode hex="0041"/>
  <anchor x="394" y="0" name="bottom"/>
  <anchor x="708" y="10" name="ogonek"/>
  <anchor x="394" y="700" name="top"/>
  <outline>
    <contour>
      <point x="468" y="-2" type="line"/>
      <point x="769" y="0" type="line"/>
      <point x="769" y="28" type="line"/>
      <point x="763" y="28" type="line"/>
      <point x="730" y="28"/>
      <point x="684" y="72"/>
      <point x="662" y="134" type="curve" smooth="yes"/>
      <point x="468" y="679" type="line"/>
      <point x="458" y="719" type="line"/>
      <point x="447" y="728" type="line"/>
      <point x="426" y="716"/>
      <point x="381" y="704"/>
      <point x="339" y="700" type="curve"/>
      <point x="339" y="666" type="line"/>
      <point x="371" y="659" type="line"/>
      <point x="467" y="388"/>
      <point x="550" y="152"/>
      <point x="571" y="89" type="curve" smooth="yes"/>
      <point x="582" y="52"/>
      <point x="565" y="26"/>
      <point x="531" y="26" type="curve" smooth="yes"/>
      <point x="468" y="26" type="line"/>
    </contour>
    <contour>
      <point x="18" y="1" type="line"/>
      <point x="317" y="1" type="line"/>
      <point x="317" y="28" type="line"/>
      <point x="310" y="28"/>
      <point x="315" y="29"/>
      <point x="297" y="29" type="curve" smooth="yes"/>
      <point x="244" y="29"/>
      <point x="213" y="59"/>
      <point x="222" y="101" type="curve"/>
      <point x="385" y="660" type="line"/>
      <point x="342" y="686" type="line"/>
      <point x="273" y="480"/>
      <point x="201" y="240"/>
      <point x="168" y="105" type="curve" smooth="yes"/>
      <point x="157" y="60"/>
      <point x="119" y="29"/>
      <point x="76" y="29" type="curve" smooth="yes"/>
      <point x="18" y="29" type="line"/>
    </contour>
    <contour>
      <point x="253" y="288" type="line"/>
      <point x="565" y="288" type="line"/>
      <point x="565" y="338" type="line"/>
      <point x="253" y="338" type="line"/>
    </contour>
  </outline>
</glyph>
<glyph name="B" format="2">
  <advance width="675"/>
  <unicode hex="0042"/>
  <anchor x="338" y="700" name="top"/>
  <anchor x="338" y="0" name="bottom"/>
  <anchor x="169" y="175" name="center"/>
  <outline>
    <contour>
      <point x="30" y="0" type="line"/>
      <point x="72" y="0"/>
      <point x="108" y="2"/>
      <point x="158" y="2" type="curve" smooth="yes"/>
      <point x="210" y="2"/>
      <point x="335" y="0"/>
      <point x="387" y="0" type="curve" smooth="yes"/>
      <point x="523" y="0"/>
      <point x="620" y="78"/>
      <point x="620" y="188" type="curve" smooth="yes"/>
      <point x="620" y="299"/>
      <point x="505" y="377"/>
      <point x="343" y="377" type="curve" smooth="yes"/>
      <point x="190" y="377" type="line"/>
      <point x="190" y="336" type="line"/>
      <point x="241" y="336"/>
      <point x="300" y="336"/>
      <point x="343" y="336" type="curve" smooth="yes"/>
      <point x="429" y="336"/>
      <point x="490" y="273"/>
      <point x="490" y="185" type="curve" smooth="yes"/>
      <point x="490" y="95"/>
      <point x="434" y="31"/>
      <point x="356" y="31" type="curve" smooth="yes"/>
      <point x="282" y="31"/>
      <point x="227" y="57"/>
      <point x="227" y="94" type="curve" smooth="yes"/>
      <point x="227" y="669" type="line"/>
      <point x="256" y="669"/>
      <point x="302" y="669"/>
      <point x="333" y="669" type="curve" smooth="yes"/>
      <point x="407" y="669"/>
      <point x="459" y="609"/>
      <point x="459" y="523" type="curve" smooth="yes"/>
      <point x="459" y="437"/>
      <point x="392" y="377"/>
      <point x="297" y="377" type="curve"/>
      <point x="297" y="344" type="line"/>
      <point x="461" y="344"/>
      <point x="577" y="426"/>
      <point x="577" y="541" type="curve" smooth="yes"/>
      <point x="577" y="629"/>
      <point x="478" y="694"/>
      <point x="339" y="699" type="curve" smooth="yes"/>
      <point x="343" y="698"/>
      <point x="274" y="698"/>
      <point x="174" y="698" type="curve" smooth="yes"/>
      <point x="146" y="698"/>
      <point x="39" y="700"/>
      <point x="22" y="700" type="curve"/>
      <point x="22" y="672" type="line"/>
      <point x="31" y="672"/>
      <point x="37" y="672"/>
      <point x="48" y="672" type="curve" smooth="yes"/>
      <point x="94" y="672"/>
      <point x="127" y="647"/>
      <point x="127" y="611" type="curve" smooth="yes"/>
      <point x="127" y="562"/>
      <point x="127" y="104"/>
      <point x="127" y="71" type="curve" smooth="yes"/>
      <point x="127" y="46"/>
      <point x="102" y="28"/>
      <point x="67" y="28" type="curve" smooth="yes"/>
      <point x="30" y="28" type="line"/>
    </contour>
  </outline>
</glyph>
<glyph name="C" format="2">
  <advance width="816"/>
  <unicode hex="0043"/>
  <anchor x="408" y="700" name="top"/>
  <anchor x="408" y="0" name="bottom"/>
  <outline>
    <contour>
      <point x="448" y="-8" type="curve" smooth="yes"/>
      <point x="565" y="-8"/>
      <point x="690" y="44"/>
      <point x="749" y="118" type="curve"/>
      <point x="752" y="249" type="line"/>
      <point x="729" y="251" type="line"/>
      <point x="716" y="124"/>
      <point x="614" y="34"/>
      <point x="483" y="34" type="curve" smooth="yes"/>
      <point x="317" y="34"/>
      <point x="190" y="192"/>
      <point x="190" y="415" type="curve" smooth="yes"/>
      <point x="190" y="574"/>
      <point x="297" y="687"/>
      <point x="433" y="687" type="curve" smooth="yes"/>
      <point x="560" y="687"/>
      <point x="667" y="624"/>
      <point x="690" y="536" type="curve"/>
      <point x="714" y="536" type="line"/>
      <point x="704" y="707" type="line"/>
      <point x="677" y="707" type="line"/>
      <point x="672" y="689"/>
      <point x="661" y="677"/>
      <point x="651" y="677" type="curve"/>
      <point x="606" y="705"/>
      <point x="520" y="725"/>
      <point x="444" y="725" type="curve" smooth="yes"/>
      <point x="221" y="725"/>
      <point x="64" y="573"/>
      <point x="64" y="359" type="curve" smooth="yes"/>
      <point x="64" y="144"/>
      <point x="223" y="-8"/>
    </contour>
  </outline>
</glyph>
<glyph name="D" format="2">
  <advance width="817"/>
  <unicode hex="0044"/>
  <anchor x="409" y="700" name="top"/>
  <anchor x="409" y="0" name="bottom"/>
  <anchor x="204" y="350" name="center"/>
  <outline>
    <contour>
      <point x="-11" y="-3" type="line"/>
      <point x="51" y="-1"/>
      <point x="128" y="0"/>
      <point x="173" y="0" type="curve" smooth="yes"/>
      <point x="231" y="0"/>
      <point x="303" y="-3"/>
      <point x="370" y="-3" type="curve" smooth="yes"/>
      <point x="594" y="-3"/>
      <point x="753" y="160"/>
      <point x="753" y="390" type="curve" smooth="yes"/>
      <point x="753" y="573"/>
      <point x="608" y="702"/>
      <point x="402" y="702" type="curve" smooth="yes"/>
      <point x="340" y="702"/>
      <point x="198" y="700"/>
      <point x="168" y="700" type="curve" smooth="yes"/>
      <point x="138" y="700"/>
      <point x="86" y="702"/>
      <point x="72" y="702" type="curve" smooth="yes"/>
      <point x="-1" y="702" type="line"/>
      <point x="-1" y="672" type="line"/>
      <point x="12" y="672"/>
      <point x="12" y="672"/>
      <point x="39" y="672" type="curve" smooth="yes"/>
      <point x="90" y="672"/>
      <point x="127" y="636"/>
      <point x="127" y="586" type="curve" smooth="yes"/>
      <point x="127" y="519"/>
      <point x="127" y="163"/>
      <point x="127" y="132" type="curve" smooth="yes"/>
      <point x="127" y="71"/>
      <point x="84" y="27"/>
      <point x="25" y="27" type="curve" smooth="yes"/>
      <point x="-11" y="27" type="line"/>
    </contour>
    <contour>
      <point x="377" y="32" type="curve" smooth="yes"/>
      <point x="290" y="32"/>
      <point x="227" y="63"/>
      <point x="227" y="107" type="curve" smooth="yes"/>
      <point x="227" y="666" type="line"/>
      <point x="272" y="666"/>
      <point x="334" y="666"/>
      <point x="370" y="666" type="curve" smooth="yes"/>
      <point x="513" y="666"/>
      <point x="625" y="546"/>
      <point x="625" y="368" type="curve" smooth="yes"/>
      <point x="625" y="168"/>
      <point x="516" y="32"/>
    </contour>
  </outline>
</glyph>
<glyph name="E" format="2">
  <advance width="692"/>
  <unicode hex="0045"/>
  <anchor x="346" y="700" name="top"/>
  <anchor x="346" y="0" name="bottom"/>
  <anchor x="623" y="10" name="ogonek"/>
  <anchor x="20" y="700" name="topleft"/>
  <outline>
    <contour>
      <point x="322" y="-1" type="curve" smooth="yes"/>
      <point x="568" y="-1" type="line"/>
      <point x="647" y="143" type="line"/>
      <point x="622" y="158" type="line"/>
      <point x="576" y="82"/>
      <point x="512" y="34"/>
      <point x="467" y="34" type="curve" smooth="yes"/>
      <point x="447" y="34"/>
      <point x="299" y="34"/>
      <point x="273" y="34" type="curve" smooth="yes"/>
      <point x="245" y="34"/>
      <point x="227" y="56"/>
      <point x="227" y="88" type="curve" smooth="yes"/>
      <point x="227" y="202"/>
      <point x="227" y="599"/>
      <point x="227" y="620" type="curve" smooth="yes"/>
      <point x="227" y="646"/>
      <point x="255" y="665"/>
      <point x="297" y="665" type="curve" smooth="yes"/>
      <point x="317" y="665"/>
      <point x="422" y="665"/>
      <point x="435" y="665" type="curve" smooth="yes"/>
      <point x="496" y="665"/>
      <point x="540" y="625"/>
      <point x="540" y="561" type="curve"/>
      <point x="568" y="561" type="line"/>
      <point x="568" y="700" type="line"/>
      <point x="484" y="700"/>
      <point x="337" y="700"/>
      <point x="317" y="700" type="curve" smooth="yes"/>
      <point x="297" y="700"/>
      <point x="203" y="697"/>
      <point x="188" y="697" type="curve" smooth="yes"/>
      <point x="173" y="697"/>
      <point x="76" y="700"/>
      <point x="53" y="700" type="curve"/>
      <point x="53" y="667" type="line"/>
      <point x="98" y="667"/>
      <point x="127" y="643"/>
      <point x="127" y="609" type="curve" smooth="yes"/>
      <point x="127" y="585"/>
      <point x="127" y="181"/>
      <point x="127" y="137" type="curve" smooth="yes"/>
      <point x="127" y="76"/>
      <point x="107" y="33"/>
      <point x="76" y="33" type="curve" smooth="yes"/>
      <point x="41" y="33" type="line"/>
      <point x="41" y="0" type="line"/>
      <point x="72" y="0"/>
      <point x="133" y="0"/>
      <point x="177" y="0" type="curve" smooth="yes"/>
      <point x="221" y="0"/>
      <point x="285" y="-1"/>
    </contour>
    <contour>
      <point x="472" y="260" type="curve"/>
      <point x="499" y="260" type="line"/>
      <point x="495" y="327"/>
      <point x="495" y="395"/>
      <point x="499" y="462" type="curve"/>
      <point x="471" y="462" type="line"/>
      <point x="471" y="403"/>
      <point x="447" y="374"/>
      <point x="408" y="374" type="curve" smooth="yes"/>
      <point x="199" y="374" type="line"/>
      <point x="198" y="344" type="line"/>
      <point x="261" y="344"/>
      <point x="383" y="344"/>
      <point x="408" y="344" type="curve" smooth="yes"/>
      <point x="448" y="344"/>
      <point x="472" y="295"/>
    </contour>
  </outline>
</glyph>
<glyph name="F" format="2">
  <advance width="586"/>
  <unicode hex="0046"/>
  <anchor x="293" y="700" name="top"/>
  <anchor x="293" y="0" name="bottom"/>
  <outline>
    <contour>
      <point x="320" y="-1" type="curve"/>
      <point x="320" y="27" type="line"/>
      <point x="298" y="27"/>
      <point x="281" y="27"/>
      <point x="273" y="27" type="curve" smooth="yes"/>
      <point x="245" y="27"/>
      <point x="227" y="49"/>
      <point x="227" y="81" type="curve" smooth="yes"/>
      <point x="227" y="195"/>
      <point x="227" y="599"/>
      <point x="227" y="620" type="curve" smooth="yes"/>
      <point x="227" y="646"/>
      <point x="255" y="665"/>
      <point x="297" y="665" type="curve" smooth="yes"/>
      <point x="317" y="665"/>
      <point x="422" y="665"/>
      <point x="435" y="665" type="curve" smooth="yes"/>
      <point x="496" y="665"/>
      <point x="530" y="625"/>
      <point x="540" y="561" type="curve"/>
      <point x="568" y="561" type="line"/>
      <point x="558" y="700" type="line"/>
      <point x="474" y="700"/>
      <point x="337" y="700"/>
      <point x="317" y="700" type="curve" smooth="yes"/>
      <point x="297" y="700"/>
      <point x="203" y="697"/>
      <point x="188" y="697" type="curve" smooth="yes"/>
      <point x="173" y="697"/>
      <point x="76" y="700"/>
      <point x="53" y="700" type="curve"/>
      <point x="53" y="667" type="line"/>
      <point x="98" y="667"/>
      <point x="127" y="643"/>
      <point x="127" y="609" type="curve" smooth="yes"/>
      <point x="127" y="585"/>
      <point x="127" y="181"/>
      <point x="127" y="137" type="curve" smooth="yes"/>
      <point x="127" y="69"/>
      <point x="107" y="26"/>
      <point x="76" y="26" type="curve" smooth="yes"/>
      <point x="41" y="26" type="line"/>
      <point x="41" y="0" type="line"/>
      <point x="72" y="0"/>
      <point x="133" y="0"/>
      <point x="177" y="0" type="curve" smooth="yes"/>
      <point x="220" y="0"/>
      <point x="283" y="-1"/>
    </contour>
    <contour>
      <point x="452" y="240" type="curve"/>
      <point x="479" y="240" type="line"/>
      <point x="475" y="307"/>
      <point x="475" y="415"/>
      <point x="479" y="482" type="curve"/>
      <point x="451" y="482" type="line"/>
      <point x="451" y="423"/>
      <point x="427" y="374"/>
      <point x="388" y="374" type="curve" smooth="yes"/>
      <point x="199" y="374" type="line"/>
      <point x="198" y="344" type="line"/>
      <point x="261" y="344"/>
      <point x="363" y="344"/>
      <point x="388" y="344" type="curve" smooth="yes"/>
      <point x="428" y="344"/>
      <point x="452" y="275"/>
    </contour>
  </outline>
</glyph>
<glyph name="G" format="2">
  <advance width="859"/>
  <unicode hex="0047"/>
  <anchor x="430" y="700" name="top"/>
  <anchor x="430" y="0" name="bottom"/>
  <outline>
    <contour>
      <point x="476" y="-20" type="curve" smooth="yes"/>
      <point x="554" y="-20"/>
      <point x="668" y="13"/>
      <point x="751" y="59" type="curve"/>
      <point x="751" y="73" type="line"/>
      <point x="740" y="79"/>
      <point x="732" y="89"/>
      <point x="732" y="96" type="curve" smooth="yes"/>
      <point x="732" y="109"/>
      <point x="732" y="199"/>
      <point x="732" y="222" type="curve" smooth="yes"/>
      <point x="732" y="252"/>
      <point x="751" y="274"/>
      <point x="778" y="274" type="curve" smooth="yes"/>
      <point x="802" y="274" type="line"/>
      <point x="802" y="309" type="line"/>
      <point x="487" y="309" type="line"/>
      <point x="487" y="273" type="line"/>
      <point x="510" y="273"/>
      <point x="581" y="273"/>
      <point x="587" y="273" type="curve" smooth="yes"/>
      <point x="612" y="273"/>
      <point x="630" y="234"/>
      <point x="630" y="180" type="curve" smooth="yes"/>
      <point x="630" y="80"/>
      <point x="564" y="10"/>
      <point x="485" y="10" type="curve" smooth="yes"/>
      <point x="329" y="10"/>
      <point x="199" y="150"/>
      <point x="199" y="347" type="curve" smooth="yes"/>
      <point x="199" y="540"/>
      <point x="320" y="676"/>
      <point x="492" y="676" type="curve" smooth="yes"/>
      <point x="600" y="676"/>
      <point x="695" y="606"/>
      <point x="723" y="507" type="curve"/>
      <point x="744" y="507" type="line"/>
      <point x="744" y="694" type="line"/>
      <point x="676" y="694"/>
      <point x="566" y="712"/>
      <point x="474" y="712" type="curve" smooth="yes"/>
      <point x="234" y="712"/>
      <point x="64" y="561"/>
      <point x="64" y="348" type="curve" smooth="yes"/>
      <point x="64" y="132"/>
      <point x="235" y="-20"/>
    </contour>
  </outline>
</glyph>
<glyph name="H" format="2">
  <advance width="862"/>
  <unicode hex="0048"/>
  <anchor x="431" y="700" name="top"/>
  <anchor x="431" y="0" name="bottom"/>
  <anchor x="431" y="525" name="center"/>
  <anchor x="20" y="700" name="topleft"/>
  <outline>
    <contour>
      <point x="517" y="0" type="line"/>
      <point x="851" y="0" type="line"/>
      <point x="851" y="28" type="line"/>
      <point x="845" y="28"/>
      <point x="840" y="28"/>
      <point x="832" y="28" type="curve" smooth="yes"/>
      <point x="783" y="28"/>
      <point x="735" y="63"/>
      <point x="735" y="112" type="curve" smooth="yes"/>
      <point x="735" y="137"/>
      <point x="735" y="581"/>
      <point x="735" y="605" type="curve" smooth="yes"/>
      <point x="735" y="644"/>
      <point x="769" y="672"/>
      <point x="798" y="672" type="curve" smooth="yes"/>
      <point x="826" y="672" type="line"/>
      <point x="826" y="700" type="line"/>
      <point x="521" y="700" type="line"/>
      <point x="521" y="672" type="line"/>
      <point x="532" y="672"/>
      <point x="541" y="672"/>
      <point x="554" y="672" type="curve" smooth="yes"/>
      <point x="594" y="672"/>
      <point x="635" y="652"/>
      <point x="635" y="624" type="curve" smooth="yes"/>
      <point x="635" y="601"/>
      <point x="635" y="146"/>
      <point x="635" y="125" type="curve" smooth="yes"/>
      <point x="635" y="68"/>
      <point x="595" y="28"/>
      <point x="557" y="28" type="curve" smooth="yes"/>
      <point x="517" y="28" type="line"/>
    </contour>
    <contour>
      <point x="25" y="0" type="line"/>
      <point x="348" y="0" type="line"/>
      <point x="348" y="28" type="line"/>
      <point x="341" y="28"/>
      <point x="341" y="28"/>
      <point x="327" y="28" type="curve" smooth="yes"/>
      <point x="276" y="28"/>
      <point x="227" y="61"/>
      <point x="227" y="108" type="curve" smooth="yes"/>
      <point x="227" y="138"/>
      <point x="227" y="591"/>
      <point x="227" y="612" type="curve" smooth="yes"/>
      <point x="227" y="647"/>
      <point x="255" y="672"/>
      <point x="277" y="672" type="curve" smooth="yes"/>
      <point x="327" y="672" type="line"/>
      <point x="327" y="700" type="line"/>
      <point x="38" y="700" type="line"/>
      <point x="38" y="672" type="line"/>
      <point x="46" y="672"/>
      <point x="53" y="672"/>
      <point x="63" y="672" type="curve" smooth="yes"/>
      <point x="91" y="672"/>
      <point x="127" y="669"/>
      <point x="127" y="649" type="curve" smooth="yes"/>
      <point x="127" y="595"/>
      <point x="127" y="164"/>
      <point x="127" y="132" type="curve" smooth="yes"/>
      <point x="127" y="71"/>
      <point x="90" y="28"/>
      <point x="64" y="28" type="curve" smooth="yes"/>
      <point x="25" y="28" type="line"/>
    </contour>
    <contour>
      <point x="217" y="345" type="line"/>
      <point x="680" y="345" type="line"/>
      <point x="680" y="380" type="line"/>
      <point x="217" y="380" type="line"/>
    </contour>
  </outline>
</glyph>
<glyph name="I" format="2">
  <advance width="354"/>
  <unicode hex="0049"/>
  <anchor x="177" y="700" name="top"/>
  <anchor x="177" y="0" name="bottom"/>
  <anchor x="319" y="10" name="ogonek"/>
  <anchor x="20" y="700" name="topleft"/>
  <outline>
    <contour>
      <point x="35" y="0" type="line"/>
      <point x="298" y="0" type="line"/>
      <point x="298" y="28" type="line"/>
      <point x="291" y="28"/>
      <point x="281" y="28"/>
      <point x="267" y="28" type="curve" smooth="yes"/>
      <point x="245" y="28"/>
      <point x="227" y="61"/>
      <point x="227" y="108" type="curve" smooth="yes"/>
      <point x="227" y="138"/>
      <point x="227" y="591"/>
      <point x="227" y="612" type="curve" smooth="yes"/>
      <point x="227" y="647"/>
      <point x="249" y="672"/>
      <point x="277" y="672" type="curve" smooth="yes"/>
      <point x="320" y="672" type="line"/>
      <point x="320" y="700" type="line"/>
      <point x="33" y="700" type="line"/>
      <point x="33" y="672" type="line"/>
      <point x="41" y="672"/>
      <point x="48" y="672"/>
      <point x="58" y="672" type="curve" smooth="yes"/>
      <point x="97" y="672"/>
      <point x="127" y="662"/>
      <point x="127" y="649" type="curve" smooth="yes"/>
      <point x="127" y="595"/>
      <point x="127" y="164"/>
      <point x="127" y="132" type="curve" smooth="yes"/>
      <point x="127" y="71"/>
      <point x="95" y="28"/>
      <point x="54" y="28" type="curve" smooth="yes"/>
      <point x="35" y="28" type="line"/>
    </contour>
  </outline>
</glyph>
<glyph name="J" format="2">
  <advance width="336"/>
  <unicode hex="004A"/>
  <anchor x="168" y="700" name="top"/>
  <anchor x="168" y="0" name="bottom"/>
  <outline>
    <contour>
      <point x="46" y="-373" type="curve" smooth="yes"/>
      <point x="153" y="-373"/>
      <point x="227" y="-294"/>
      <point x="227" y="-183" type="curve" smooth="yes"/>
      <point x="227" y="-92"/>
      <point x="227" y="570"/>
      <point x="227" y="611" type="curve" smooth="yes"/>
      <point x="227" y="649"/>
      <point x="265" y="674"/>
      <point x="318" y="672" type="curve" smooth="yes"/>
      <point x="347" y="671" type="line"/>
      <point x="347" y="700" type="line"/>
      <point x="38" y="700" type="line"/>
      <point x="38" y="671" type="line"/>
      <point x="47" y="671"/>
      <point x="54" y="672"/>
      <point x="65" y="672" type="curve" smooth="yes"/>
      <point x="101" y="672"/>
      <point x="127" y="654"/>
      <point x="127" y="628" type="curve" smooth="yes"/>
      <point x="127" y="591"/>
      <point x="127" y="-217"/>
      <point x="127" y="-254" type="curve" smooth="yes"/>
      <point x="127" y="-306"/>
      <point x="95" y="-342"/>
      <point x="51" y="-342" type="curve" smooth="yes"/>
      <point x="1" y="-342"/>
      <point x="-34" y="-320"/>
      <point x="-34" y="-288" type="curve" smooth="yes"/>
      <point x="-34" y="-262"/>
      <point x="-20" y="-256"/>
      <point x="-20" y="-239" type="curve" smooth="yes"/>
      <point x="-20" y="-227"/>
      <point x="-37" y="-219"/>
      <point x="-61" y="-219" type="curve" smooth="yes"/>
      <point x="-89" y="-219"/>
      <point x="-108" y="-249"/>
      <point x="-108" y="-292" type="curve" smooth="yes"/>
      <point x="-108" y="-339"/>
      <point x="-44" y="-373"/>
    </contour>
  </outline>
</glyph>
<glyph name="K" format="2">
  <advance width="748"/>
  <unicode hex="004B"/>
  <anchor x="374" y="700" name="top"/>
  <anchor x="374" y="0" name="bottom"/>
  <outline>
    <contour>
      <point x="588" y="0" type="curve" smooth="yes"/>
      <point x="739" y="0" type="line"/>
      <point x="739" y="28" type="line"/>
      <point x="732" y="28" type="line" smooth="yes"/>
      <point x="704" y="28"/>
      <point x="669" y="57"/>
      <point x="627" y="99" type="curve" smooth="yes"/>
      <point x="318" y="410" type="line"/>
      <point x="399" y="489"/>
      <point x="481" y="568"/>
      <point x="499" y="589" type="curve" smooth="yes"/>
      <point x="527" y="621"/>
      <point x="596" y="659"/>
      <point x="621" y="659" type="curve" smooth="yes"/>
      <point x="668" y="659" type="line"/>
      <point x="668" y="696" type="line"/>
      <point x="403" y="696" type="line"/>
      <point x="403" y="660" type="line"/>
      <point x="431" y="660" type="line" smooth="yes"/>
      <point x="440" y="660"/>
      <point x="480" y="631"/>
      <point x="447" y="589" type="curve"/>
      <point x="226" y="358" type="line"/>
      <point x="226" y="468"/>
      <point x="228" y="575"/>
      <point x="228" y="594" type="curve" smooth="yes"/>
      <point x="228" y="640"/>
      <point x="249" y="672"/>
      <point x="275" y="672" type="curve" smooth="yes"/>
      <point x="309" y="672" type="line"/>
      <point x="309" y="700" type="line"/>
      <point x="57" y="700" type="line"/>
      <point x="57" y="672" type="line"/>
      <point x="85" y="672" type="line" smooth="yes"/>
      <point x="108" y="672"/>
      <point x="127" y="655"/>
      <point x="127" y="630" type="curve" smooth="yes"/>
      <point x="127" y="83" type="line" smooth="yes"/>
      <point x="127" y="51"/>
      <point x="109" y="28"/>
      <point x="88" y="28" type="curve" smooth="yes"/>
      <point x="72" y="28" type="line"/>
      <point x="72" y="0" type="line"/>
      <point x="324" y="0" type="line"/>
      <point x="324" y="28" type="line"/>
      <point x="293" y="28" type="line" smooth="yes"/>
      <point x="255" y="28"/>
      <point x="228" y="52"/>
      <point x="228" y="87" type="curve" smooth="yes"/>
      <point x="226" y="318" type="line"/>
      <point x="241" y="333" type="line"/>
      <point x="528" y="36" type="line" smooth="yes"/>
      <point x="548" y="15"/>
      <point x="572" y="0"/>
    </contour>
  </outline>
</glyph>
<glyph name="L" format="2">
  <advance width="709"/>
  <unicode hex="004C"/>
  <anchor x="355" y="700" name="top"/>
  <anchor x="355" y="0" name="bottom"/>
  <anchor x="355" y="350" name="center"/>
  <anchor x="689" y="700" name="topright"/>
  <outline>
    <contour>
      <point x="16" y="35" type="curve"/>
      <point x="16" y="0" type="line"/>
      <point x="605" y="0" type="line"/>
      <point x="673" y="162" type="line"/>
      <point x="641" y="169" type="line"/>
      <point x="610" y="91"/>
      <point x="547" y="35"/>
      <point x="487" y="35" type="curve" smooth="yes"/>
      <point x="418" y="35"/>
      <point x="324" y="35"/>
      <point x="301" y="35" type="curve" smooth="yes"/>
      <point x="261" y="35"/>
      <point x="227" y="74"/>
      <point x="227" y="130" type="curve" smooth="yes"/>
      <point x="227" y="179"/>
      <point x="227" y="558"/>
      <point x="227" y="608" type="curve" smooth="yes"/>
      <point x="227" y="645"/>
      <point x="280" y="672"/>
      <point x="349" y="672" type="curve" smooth="yes"/>
      <point x="369" y="672" type="line"/>
      <point x="369" y="700" type="line"/>
      <point x="14" y="700" type="line"/>
      <point x="14" y="672" type="line"/>
      <point x="40" y="672" type="line"/>
      <point x="89" y="672"/>
      <point x="127" y="636"/>
      <point x="127" y="584" type="curve" smooth="yes"/>
      <point x="127" y="533"/>
      <point x="127" y="166"/>
      <point x="127" y="125" type="curve" smooth="yes"/>
      <point x="127" y="72"/>
      <point x="105" y="35"/>
      <point x="79" y="35" type="curve" smooth="yes"/>
      <point x="61" y="35"/>
      <point x="30" y="35"/>
    </contour>
  </outline>
</glyph>
<glyph name="M" format="2">
  <advance width="930"/>
  <unicode hex="004D"/>
  <anchor x="465" y="700" name="top"/>
  <anchor x="465" y="0" name="bottom"/>
  <outline>
    <contour>
      <point x="190" y="538" type="curve" smooth="yes"/>
      <point x="409" y="0" type="line"/>
      <point x="432" y="0" type="line"/>
      <point x="721" y="640" type="line"/>
      <point x="704" y="700" type="line"/>
      <point x="456" y="150" type="line"/>
      <point x="232" y="700" type="line"/>
      <point x="12" y="700" type="line"/>
      <point x="12" y="659" type="line"/>
      <point x="33" y="659"/>
      <point x="62" y="659"/>
      <point x="86" y="659" type="curve" smooth="yes"/>
      <point x="118" y="659"/>
      <point x="161" y="609"/>
    </contour>
    <contour>
      <point x="11" y="0" type="line"/>
      <point x="270" y="0" type="line"/>
      <point x="270" y="27" type="line"/>
      <point x="260" y="27"/>
      <point x="252" y="27"/>
      <point x="241" y="27" type="curve" smooth="yes"/>
      <point x="189" y="27"/>
      <point x="153" y="54"/>
      <point x="153" y="92" type="curve" smooth="yes"/>
      <point x="153" y="656" type="line"/>
      <point x="127" y="656" type="line"/>
      <point x="127" y="484"/>
      <point x="127" y="187"/>
      <point x="127" y="141" type="curve" smooth="yes"/>
      <point x="127" y="74"/>
      <point x="97" y="27"/>
      <point x="55" y="27" type="curve" smooth="yes"/>
      <point x="11" y="27" type="line"/>
    </contour>
    <contour>
      <point x="601" y="0" type="line"/>
      <point x="910" y="0" type="line"/>
      <point x="910" y="28" type="line"/>
      <point x="899" y="28"/>
      <point x="891" y="28"/>
      <point x="878" y="28" type="curve" smooth="yes"/>
      <point x="833" y="28"/>
      <point x="803" y="53"/>
      <point x="803" y="88" type="curve" smooth="yes"/>
      <point x="803" y="126"/>
      <point x="803" y="580"/>
      <point x="803" y="611" type="curve" smooth="yes"/>
      <point x="803" y="640"/>
      <point x="821" y="660"/>
      <point x="847" y="660" type="curve" smooth="yes"/>
      <point x="888" y="660" type="line"/>
      <point x="888" y="700" type="line"/>
      <point x="703" y="700" type="line"/>
      <point x="703" y="498"/>
      <point x="703" y="114"/>
      <point x="703" y="91" type="curve" smooth="yes"/>
      <point x="703" y="54"/>
      <point x="695" y="28"/>
      <point x="682" y="28" type="curve" smooth="yes"/>
      <point x="603" y="28" type="line"/>
    </contour>
  </outline>
</glyph>
<glyph name="N" format="2">
  <advance width="830"/>
  <unicode hex="004E"/>
  <anchor x="415" y="700" name="top"/>
  <anchor x="415" y="0" name="bottom"/>
  <outline>
    <contour>
      <point x="110" y="634" type="curve" smooth="yes"/>
      <point x="688" y="-6" type="line"/>
      <point x="721" y="-6" type="line"/>
      <point x="721" y="189"/>
      <point x="721" y="535"/>
      <point x="721" y="579" type="curve" smooth="yes"/>
      <point x="721" y="633"/>
      <point x="757" y="672"/>
      <point x="809" y="672" type="curve" smooth="yes"/>
      <point x="848" y="672" type="line"/>
      <point x="848" y="700" type="line"/>
      <point x="530" y="700" type="line"/>
      <point x="530" y="672" type="line"/>
      <point x="541" y="672"/>
      <point x="582" y="672"/>
      <point x="596" y="672" type="curve" smooth="yes"/>
      <point x="639" y="672"/>
      <point x="669" y="640"/>
      <point x="669" y="594" type="curve" smooth="yes"/>
      <point x="669" y="164" type="line"/>
      <point x="185" y="700" type="line"/>
      <point x="-5" y="697" type="line"/>
      <point x="-5" y="669" type="line"/>
      <point x="8" y="669"/>
      <point x="19" y="669"/>
      <point x="33" y="669" type="curve" smooth="yes"/>
      <point x="59" y="669"/>
      <point x="91" y="654"/>
    </contour>
    <contour>
      <point x="25" y="0" type="line"/>
      <point x="316" y="0" type="line"/>
      <point x="316" y="27" type="line"/>
      <point x="256" y="27"/>
      <point x="252" y="27"/>
      <point x="241" y="27" type="curve" smooth="yes"/>
      <point x="189" y="27"/>
      <point x="153" y="54"/>
      <point x="153" y="92" type="curve" smooth="yes"/>
      <point x="153" y="656" type="line"/>
      <point x="127" y="656" type="line"/>
      <point x="127" y="484"/>
      <point x="127" y="187"/>
      <point x="127" y="141" type="curve" smooth="yes"/>
      <point x="127" y="74"/>
      <point x="97" y="27"/>
      <point x="55" y="27" type="curve" smooth="yes"/>
      <point x="25" y="27" type="line"/>
    </contour>
  </outline>
</glyph>
<glyph name="O" format="2">
  <advance width="902"/>
  <unicode hex="004F"/>
  <anchor x="451" y="0" name="bottom"/>
  <anchor x="451" y="350" name="center"/>
  <anchor x="812" y="10" name="ogonek"/>
  <anchor x="451" y="700" name="top"/>
  <anchor x="20" y="700" name="topleft"/>
  <anchor x="882" y="700" name="topright"/>
  <outline>
    <contour>
      <point x="444" y="-11" type="curve" smooth="yes"/>
      <point x="675" y="-11"/>
      <point x="838" y="145"/>
      <point x="838" y="365" type="curve" smooth="yes"/>
      <point x="838" y="572"/>
      <point x="676" y="719"/>
      <point x="448" y="719" type="curve" smooth="yes"/>
      <point x="223" y="719"/>
      <point x="64" y="572"/>
      <point x="64" y="365" type="curve" smooth="yes"/>
      <point x="64" y="145"/>
      <point x="221" y="-11"/>
    </contour>
    <contour>
      <point x="463" y="19" type="curve"/>
      <point x="308" y="19"/>
      <point x="198" y="179"/>
      <point x="198" y="405" type="curve" smooth="yes"/>
      <point x="198" y="571"/>
      <point x="298" y="689"/>
      <point x="440" y="689" type="curve" smooth="yes"/>
      <point x="595" y="689"/>
      <point x="705" y="539"/>
      <point x="705" y="326" type="curve" smooth="yes"/>
      <point x="705" y="146"/>
      <point x="605" y="19"/>
    </contour>
  </outline>
</glyph>
<glyph name="P" format="2">
  <advance width="604"/>
  <unicode hex="0050"/>
  <anchor x="302" y="700" name="top"/>
  <anchor x="302" y="0" name="bottom"/>
  <outline>
    <contour>
      <point x="44" y="0" type="line"/>
      <point x="340" y="0" type="line"/>
      <point x="340" y="28" type="line"/>
      <point x="333" y="28"/>
      <point x="310" y="28"/>
      <point x="300" y="28" type="curve" smooth="yes"/>
      <point x="260" y="28"/>
      <point x="227" y="57"/>
      <point x="227" y="98" type="curve" smooth="yes"/>
      <point x="227" y="148"/>
      <point x="227" y="626"/>
      <point x="227" y="642" type="curve" smooth="yes"/>
      <point x="227" y="657"/>
      <point x="252" y="667"/>
      <point x="280" y="667" type="curve" smooth="yes"/>
      <point x="384" y="667"/>
      <point x="458" y="595"/>
      <point x="458" y="486" type="curve" smooth="yes"/>
      <point x="458" y="382"/>
      <point x="396" y="309"/>
      <point x="308" y="309" type="curve"/>
      <point x="308" y="279" type="line"/>
      <point x="466" y="279"/>
      <point x="577" y="369"/>
      <point x="577" y="497" type="curve" smooth="yes"/>
      <point x="577" y="616"/>
      <point x="472" y="702"/>
      <point x="323" y="702" type="curve" smooth="yes"/>
      <point x="269" y="702"/>
      <point x="185" y="699"/>
      <point x="157" y="699" type="curve" smooth="yes"/>
      <point x="141" y="699"/>
      <point x="87" y="702"/>
      <point x="27" y="702" type="curve"/>
      <point x="27" y="672" type="line"/>
      <point x="82" y="672"/>
      <point x="127" y="653"/>
      <point x="127" y="625" type="curve" smooth="yes"/>
      <point x="127" y="579"/>
      <point x="127" y="81"/>
      <point x="127" y="63" type="curve" smooth="yes"/>
      <point x="127" y="43"/>
      <point x="104" y="28"/>
      <point x="81" y="28" type="curve" smooth="yes"/>
      <point x="44" y="28" type="line"/>
    </contour>
  </outline>
</glyph>
<glyph name="Q" format="2">
  <advance width="902"/>
  <unicode hex="0051"/>
  <anchor x="451" y="700" name="top"/>
  <anchor x="451" y="0" name="bottom"/>
  <outline>
    <contour>
      <point x="444" y="-18" type="curve" smooth="yes"/>
      <point x="675" y="-18"/>
      <point x="838" y="138"/>
      <point x="838" y="358" type="curve" smooth="yes"/>
      <point x="838" y="565"/>
      <point x="676" y="712"/>
      <point x="448" y="712" type="curve" smooth="yes"/>
      <point x="223" y="712"/>
      <point x="64" y="565"/>
      <point x="64" y="358" type="curve" smooth="yes"/>
      <point x="64" y="138"/>
      <point x="221" y="-18"/>
    </contour>
    <contour>
      <point x="1050" y="-175" type="curve" smooth="yes"/>
      <point x="1083" y="-175"/>
      <point x="1127" y="-171"/>
      <point x="1156" y="-165" type="curve"/>
      <point x="1156" y="-140" type="line"/>
      <point x="903" y="-153"/>
      <point x="665" y="-84"/>
      <point x="581" y="27" type="curve"/>
      <point x="527" y="8"/>
      <point x="478" y="-5"/>
      <point x="463" y="-5" type="curve" smooth="yes"/>
      <point x="432" y="-5"/>
      <point x="376" y="13"/>
      <point x="329" y="38" type="curve"/>
      <point x="335" y="8" type="line"/>
      <point x="502" y="-99"/>
      <point x="799" y="-175"/>
    </contour>
    <contour>
      <point x="463" y="12" type="curve" smooth="yes"/>
      <point x="308" y="12"/>
      <point x="198" y="172"/>
      <point x="198" y="398" type="curve" smooth="yes"/>
      <point x="198" y="564"/>
      <point x="298" y="682"/>
      <point x="440" y="682" type="curve" smooth="yes"/>
      <point x="595" y="682"/>
      <point x="705" y="532"/>
      <point x="705" y="319" type="curve" smooth="yes"/>
      <point x="705" y="139"/>
      <point x="605" y="12"/>
    </contour>
  </outline>
</glyph>
<glyph name="R" format="2">
  <advance width="762"/>
  <unicode hex="0052"/>
  <anchor x="381" y="700" name="top"/>
  <anchor x="381" y="0" name="bottom"/>
  <outline>
    <contour>
      <point x="593" y="-3" type="curve" smooth="yes"/>
      <point x="657" y="-3"/>
      <point x="723" y="-2"/>
      <point x="753" y="0" type="curve"/>
      <point x="753" y="29" type="line"/>
      <point x="752" y="28"/>
      <point x="735" y="28"/>
      <point x="713" y="28" type="curve" smooth="yes"/>
      <point x="687" y="28"/>
      <point x="631" y="46"/>
      <point x="611" y="71" type="curve" smooth="yes"/>
      <point x="481" y="231"/>
      <point x="377" y="345"/>
      <point x="360" y="362" type="curve"/>
      <point x="380" y="328" type="line"/>
      <point x="504" y="352"/>
      <point x="592" y="439"/>
      <point x="592" y="537" type="curve" smooth="yes"/>
      <point x="592" y="627"/>
      <point x="493" y="700"/>
      <point x="353" y="700" type="curve" smooth="yes"/>
      <point x="312" y="700"/>
      <point x="200" y="698"/>
      <point x="170" y="698" type="curve" smooth="yes"/>
      <point x="119" y="698"/>
      <point x="69" y="700"/>
      <point x="18" y="700" type="curve"/>
      <point x="18" y="672" type="line"/>
      <point x="25" y="672"/>
      <point x="24" y="672"/>
      <point x="39" y="672" type="curve" smooth="yes"/>
      <point x="86" y="672"/>
      <point x="127" y="639"/>
      <point x="127" y="593" type="curve" smooth="yes"/>
      <point x="127" y="539"/>
      <point x="127" y="103"/>
      <point x="127" y="73" type="curve" smooth="yes"/>
      <point x="127" y="47"/>
      <point x="100" y="28"/>
      <point x="72" y="28" type="curve" smooth="yes"/>
      <point x="40" y="28" type="line"/>
      <point x="40" y="0" type="line"/>
      <point x="320" y="0" type="line"/>
      <point x="320" y="28" type="line"/>
      <point x="306" y="28"/>
      <point x="287" y="28"/>
      <point x="257" y="28" type="curve" smooth="yes"/>
      <point x="243" y="28"/>
      <point x="227" y="46"/>
      <point x="227" y="72" type="curve" smooth="yes"/>
      <point x="227" y="116"/>
      <point x="227" y="588"/>
      <point x="227" y="625" type="curve" smooth="yes"/>
      <point x="227" y="648"/>
      <point x="251" y="665"/>
      <point x="276" y="665" type="curve" smooth="yes"/>
      <point x="300" y="665"/>
      <point x="316" y="665"/>
      <point x="339" y="665" type="curve" smooth="yes"/>
      <point x="415" y="665"/>
      <point x="468" y="601"/>
      <point x="468" y="517" type="curve" smooth="yes"/>
      <point x="468" y="426"/>
      <point x="393" y="362"/>
      <point x="287" y="362" type="curve" smooth="yes"/>
      <point x="173" y="362" type="line"/>
      <point x="173" y="327" type="line"/>
      <point x="278" y="327" type="line"/>
      <point x="355" y="219"/>
      <point x="442" y="114"/>
      <point x="488" y="60" type="curve" smooth="yes"/>
      <point x="519" y="23"/>
      <point x="559" y="-3"/>
    </contour>
  </outline>
</glyph>
<glyph name="S" format="2">
  <advance width="578"/>
  <unicode hex="0053"/>
  <anchor x="289" y="700" name="top"/>
  <anchor x="289" y="0" name="bottom"/>
  <outline>
    <contour>
      <point x="262" y="-16" type="curve" smooth="yes"/>
      <point x="410" y="-16"/>
      <point x="514" y="71"/>
      <point x="514" y="194" type="curve" smooth="yes"/>
      <point x="514" y="395"/>
      <point x="182" y="384"/>
      <point x="182" y="563" type="curve" smooth="yes"/>
      <point x="182" y="633"/>
      <point x="234" y="682"/>
      <point x="300" y="682" type="curve" smooth="yes"/>
      <point x="377" y="682"/>
      <point x="443" y="618"/>
      <point x="460" y="527" type="curve"/>
      <point x="476" y="527" type="line"/>
      <point x="476" y="704" type="line"/>
      <point x="451" y="704" type="line"/>
      <point x="434" y="673" type="line"/>
      <point x="406" y="696"/>
      <point x="352" y="712"/>
      <point x="302" y="712" type="curve" smooth="yes"/>
      <point x="171" y="712"/>
      <point x="78" y="634"/>
      <point x="78" y="524" type="curve" smooth="yes"/>
      <point x="78" y="329"/>
      <point x="409" y="334"/>
      <point x="409" y="148" type="curve" smooth="yes"/>
      <point x="409" y="70"/>
      <point x="348" y="14"/>
      <point x="266" y="14" type="curve" smooth="yes"/>
      <point x="164" y="14"/>
      <point x="90" y="95"/>
      <point x="88" y="209" type="curve"/>
      <point x="55" y="209" type="line"/>
      <point x="55" y="80" type="line"/>
      <point x="96" y="22"/>
      <point x="182" y="-16"/>
    </contour>
  </outline>
</glyph>
<glyph name="T" format="2">
  <advance width="698"/>
  <unicode hex="0054"/>
  <anchor x="349" y="700" name="top"/>
  <anchor x="349" y="0" name="bottom"/>
  <anchor x="349" y="350" name="center"/>
  <outline>
    <contour>
      <point x="213" y="0" type="line"/>
      <point x="514" y="0" type="line"/>
      <point x="514" y="28" type="line"/>
      <point x="503" y="28"/>
      <point x="495" y="28"/>
      <point x="481" y="28" type="curve" smooth="yes"/>
      <point x="467" y="28"/>
      <point x="405" y="32"/>
      <point x="405" y="66" type="curve" smooth="yes"/>
      <point x="405" y="695" type="line"/>
      <point x="305" y="695" type="line"/>
      <point x="305" y="497"/>
      <point x="305" y="104"/>
      <point x="305" y="95" type="curve" smooth="yes"/>
      <point x="305" y="68"/>
      <point x="278" y="24"/>
      <point x="241" y="24" type="curve" smooth="yes"/>
      <point x="213" y="24" type="line"/>
    </contour>
    <contour>
      <point x="670" y="546" type="line"/>
      <point x="689" y="552" type="line"/>
      <point x="673" y="713" type="line"/>
      <point x="629" y="700" type="line"/>
      <point x="62" y="700" type="line"/>
      <point x="27" y="711" type="line"/>
      <point x="9" y="562" type="line"/>
      <point x="25" y="556" type="line"/>
      <point x="82" y="665" type="line"/>
      <point x="608" y="665" type="line"/>
    </contour>
  </outline>
</glyph>
<glyph name="U" format="2">
  <advance width="829"/>
  <unicode hex="0055"/>
  <anchor x="415" y="0" name="bottom"/>
  <anchor x="746" y="10" name="ogonek"/>
  <anchor x="415" y="700" name="top"/>
  <anchor x="809" y="700" name="topright"/>
  <outline>
    <contour>
      <point x="406" y="-11" type="curve" smooth="yes"/>
      <point x="602" y="-11"/>
      <point x="743" y="95"/>
      <point x="743" y="246" type="curve" smooth="yes"/>
      <point x="743" y="447"/>
      <point x="743" y="578"/>
      <point x="743" y="611" type="curve" smooth="yes"/>
      <point x="743" y="642"/>
      <point x="763" y="671"/>
      <point x="796" y="671" type="curve" smooth="yes"/>
      <point x="810" y="671" type="line"/>
      <point x="810" y="699" type="line"/>
      <point x="530" y="699" type="line"/>
      <point x="530" y="671" type="line"/>
      <point x="567" y="671"/>
      <point x="628" y="671"/>
      <point x="641" y="671" type="curve" smooth="yes"/>
      <point x="671" y="671"/>
      <point x="693" y="634"/>
      <point x="693" y="603" type="curve" smooth="yes"/>
      <point x="693" y="578"/>
      <point x="693" y="256"/>
      <point x="693" y="241" type="curve" smooth="yes"/>
      <point x="693" y="118"/>
      <point x="580" y="31"/>
      <point x="420" y="31" type="curve" smooth="yes"/>
      <point x="298" y="31"/>
      <point x="198" y="98"/>
      <point x="198" y="193" type="curve" smooth="yes"/>
      <point x="198" y="259"/>
      <point x="198" y="606"/>
      <point x="198" y="626" type="curve" smooth="yes"/>
      <point x="198" y="656"/>
      <point x="233" y="671"/>
      <point x="263" y="671" type="curve" smooth="yes"/>
      <point x="279" y="671" type="line"/>
      <point x="279" y="699" type="line"/>
      <point x="39" y="699" type="line"/>
      <point x="39" y="671" type="line"/>
      <point x="46" y="671"/>
      <point x="52" y="671"/>
      <point x="61" y="671" type="curve" smooth="yes"/>
      <point x="79" y="671"/>
      <point x="98" y="631"/>
      <point x="98" y="570" type="curve" smooth="yes"/>
      <point x="98" y="514"/>
      <point x="98" y="244"/>
      <point x="98" y="192" type="curve" smooth="yes"/>
      <point x="98" y="73"/>
      <point x="222" y="-11"/>
    </contour>
  </outline>
</glyph>
<glyph name="V" format="2">
  <advance width="723"/>
  <unicode hex="0056"/>
  <anchor x="362" y="700" name="top"/>
  <anchor x="362" y="0" name="bottom"/>
  <outline>
    <contour>
      <point x="88" y="627" type="curve"/>
      <point x="354" y="-12" type="line"/>
      <point x="388" y="0" type="line"/>
      <point x="617" y="641" type="line" smooth="yes"/>
      <point x="623" y="657"/>
      <point x="646" y="669"/>
      <point x="672" y="669" type="curve" smooth="yes"/>
      <point x="714" y="669" type="line"/>
      <point x="714" y="700" type="line"/>
      <point x="484" y="700" type="line"/>
      <point x="484" y="669" type="line"/>
      <point x="538" y="669" type="line" smooth="yes"/>
      <point x="562" y="669"/>
      <point x="573" y="658"/>
      <point x="567" y="641" type="curve" smooth="yes"/>
      <point x="392" y="150" type="line"/>
      <point x="190" y="621" type="line" smooth="yes"/>
      <point x="177" y="651"/>
      <point x="197" y="672"/>
      <point x="227" y="672" type="curve" smooth="yes"/>
      <point x="279" y="672" type="line"/>
      <point x="279" y="700" type="line"/>
      <point x="9" y="700" type="line"/>
      <point x="9" y="672" type="line"/>
      <point x="43" y="672" type="line" smooth="yes"/>
      <point x="57" y="672"/>
      <point x="76" y="653"/>
    </contour>
  </outline>
</glyph>
<glyph name="W" format="2">
  <advance width="1033"/>
  <unicode hex="0057"/>
  <anchor x="517" y="700" name="top"/>
  <anchor x="517" y="0" name="bottom"/>
  <outline>
    <contour>
      <point x="478" y="627" type="curve"/>
      <point x="684" y="-12" type="line"/>
      <point x="718" y="0" type="line"/>
      <point x="927" y="641" type="line" smooth="yes"/>
      <point x="932" y="657"/>
      <point x="956" y="669"/>
      <point x="982" y="669" type="curve" smooth="yes"/>
      <point x="1024" y="669" type="line"/>
      <point x="1024" y="700" type="line"/>
      <point x="837" y="700" type="line"/>
      <point x="837" y="669" type="line"/>
      <point x="848" y="669" type="line" smooth="yes"/>
      <point x="872" y="669"/>
      <point x="882" y="658"/>
      <point x="877" y="641" type="curve" smooth="yes"/>
      <point x="734" y="167" type="line"/>
      <point x="587" y="616" type="line" smooth="yes"/>
      <point x="577" y="646"/>
      <point x="587" y="672"/>
      <point x="617" y="672" type="curve" smooth="yes"/>
      <point x="649" y="672" type="line"/>
      <point x="649" y="700" type="line"/>
      <point x="399" y="700" type="line"/>
      <point x="399" y="672" type="line"/>
      <point x="433" y="672" type="line" smooth="yes"/>
      <point x="447" y="672"/>
      <point x="466" y="653"/>
    </contour>
    <contour>
      <point x="88" y="627" type="curve"/>
      <point x="294" y="-12" type="line"/>
      <point x="328" y="0" type="line"/>
      <point x="568" y="672" type="line"/>
      <point x="518" y="672" type="line"/>
      <point x="345" y="164" type="line"/>
      <point x="195" y="621" type="line" smooth="yes"/>
      <point x="185" y="651"/>
      <point x="197" y="672"/>
      <point x="227" y="672" type="curve" smooth="yes"/>
      <point x="259" y="672" type="line"/>
      <point x="259" y="700" type="line"/>
      <point x="9" y="700" type="line"/>
      <point x="9" y="672" type="line"/>
      <point x="43" y="672" type="line" smooth="yes"/>
      <point x="57" y="672"/>
      <point x="76" y="653"/>
    </contour>
  </outline>
</glyph>
<glyph name="X" format="2">
  <advance width="744"/>
  <unicode hex="0058"/>
  <anchor x="372" y="700" name="top"/>
  <anchor x="372" y="0" name="bottom"/>
  <outline>
    <contour>
      <point x="422" y="0" type="line"/>
      <point x="722" y="0" type="line"/>
      <point x="722" y="28" type="line"/>
      <point x="692" y="28" type="line"/>
      <point x="675" y="28"/>
      <point x="638" y="49"/>
      <point x="618" y="79" type="curve" smooth="yes"/>
      <point x="501" y="259"/>
      <point x="343" y="493"/>
      <point x="232" y="642" type="curve" smooth="yes"/>
      <point x="219" y="660"/>
      <point x="230" y="672"/>
      <point x="257" y="672" type="curve" smooth="yes"/>
      <point x="319" y="672" type="line"/>
      <point x="319" y="700" type="line"/>
      <point x="39" y="700" type="line"/>
      <point x="39" y="672" type="line"/>
      <point x="51" y="672" type="line"/>
      <point x="72" y="672"/>
      <point x="104" y="662"/>
      <point x="113" y="649" type="curve" smooth="yes"/>
      <point x="146" y="601"/>
      <point x="466" y="132"/>
      <point x="477" y="116" type="curve" smooth="yes"/>
      <point x="511" y="64"/>
      <point x="500" y="28"/>
      <point x="466" y="28" type="curve" smooth="yes"/>
      <point x="422" y="28" type="line"/>
    </contour>
    <contour>
      <point x="18" y="28" type="curve"/>
      <point x="18" y="0" type="line"/>
      <point x="287" y="0" type="line"/>
      <point x="287" y="28" type="line"/>
      <point x="278" y="28"/>
      <point x="279" y="28"/>
      <point x="260" y="28" type="curve" smooth="yes"/>
      <point x="200" y="28"/>
      <point x="177" y="59"/>
      <point x="205" y="104" type="curve" smooth="yes"/>
      <point x="212" y="115"/>
      <point x="291" y="215"/>
      <point x="396" y="346" type="curve"/>
      <point x="374" y="369" type="line"/>
      <point x="312" y="290"/>
      <point x="211" y="166"/>
      <point x="131" y="70" type="curve" smooth="yes"/>
      <point x="110" y="45"/>
      <point x="63" y="28"/>
    </contour>
    <contour>
      <point x="374" y="359" type="curve"/>
      <point x="396" y="336" type="line"/>
      <point x="643" y="651" type="line"/>
      <point x="654" y="665"/>
      <point x="670" y="672"/>
      <point x="685" y="672" type="curve" smooth="yes"/>
      <point x="726" y="672" type="line"/>
      <point x="726" y="700" type="line"/>
      <point x="455" y="700" type="line"/>
      <point x="455" y="672" type="line"/>
      <point x="469" y="672"/>
      <point x="480" y="672"/>
      <point x="530" y="672" type="curve" smooth="yes"/>
      <point x="565" y="672"/>
      <point x="574" y="633"/>
      <point x="536" y="579" type="curve" smooth="yes"/>
      <point x="502" y="530"/>
      <point x="494" y="520"/>
    </contour>
  </outline>
</glyph>
<glyph name="Y" format="2">
  <advance width="645"/>
  <unicode hex="0059"/>
  <anchor x="323" y="700" name="top"/>
  <anchor x="323" y="0" name="bottom"/>
  <anchor x="20" y="700" name="topleft"/>
  <outline>
    <contour>
      <point x="89" y="649" type="curve"/>
      <point x="271" y="292" type="line"/>
      <point x="365" y="319" type="line"/>
      <point x="202" y="632" type="line" smooth="yes"/>
      <point x="189" y="660"/>
      <point x="202" y="672"/>
      <point x="230" y="672" type="curve" smooth="yes"/>
      <point x="319" y="672" type="line"/>
      <point x="319" y="700" type="line"/>
      <point x="9" y="700" type="line"/>
      <point x="9" y="672" type="line"/>
      <point x="51" y="672" type="line" smooth="yes"/>
      <point x="62" y="672"/>
      <point x="80" y="662"/>
    </contour>
    <contour>
      <point x="173" y="0" type="line"/>
      <point x="474" y="0" type="line"/>
      <point x="474" y="28" type="line"/>
      <point x="441" y="28" type="line" smooth="yes"/>
      <point x="427" y="28"/>
      <point x="365" y="32"/>
      <point x="365" y="66" type="curve" smooth="yes"/>
      <point x="365" y="314" type="line"/>
      <point x="265" y="314" type="line"/>
      <point x="265" y="95" type="line" smooth="yes"/>
      <point x="265" y="68"/>
      <point x="238" y="24"/>
      <point x="201" y="24" type="curve" smooth="yes"/>
      <point x="173" y="24" type="line"/>
    </contour>
    <contour>
      <point x="490" y="630" type="curve" smooth="yes"/>
      <point x="326" y="314" type="line"/>
      <point x="365" y="314" type="line"/>
      <point x="553" y="651" type="line"/>
      <point x="563" y="663"/>
      <point x="580" y="672"/>
      <point x="595" y="672" type="curve" smooth="yes"/>
      <point x="636" y="672" type="line"/>
      <point x="636" y="700" type="line"/>
      <point x="425" y="700" type="line"/>
      <point x="425" y="672" type="line"/>
      <point x="480" y="672" type="line" smooth="yes"/>
      <point x="498" y="672"/>
      <point x="502" y="655"/>
    </contour>
  </outline>
</glyph>
<glyph name="Z" format="2">
  <advance width="684"/>
  <unicode hex="005A"/>
  <anchor x="342" y="700" name="top"/>
  <anchor x="342" y="0" name="bottom"/>
  <anchor x="342" y="350" name="center"/>
  <outline>
    <contour>
      <point x="45" y="0" type="curve"/>
      <point x="295" y="0" type="line"/>
      <point x="295" y="35" type="line"/>
      <point x="226" y="35" type="line" smooth="yes"/>
      <point x="202" y="35"/>
      <point x="196" y="52"/>
      <point x="212" y="77" type="curve" smooth="yes"/>
      <point x="605" y="649" type="line"/>
      <point x="605" y="700" type="line"/>
      <point x="134" y="700" type="line"/>
      <point x="76" y="482" type="line"/>
      <point x="111" y="476" type="line"/>
      <point x="158" y="587"/>
      <point x="213" y="665"/>
      <point x="242" y="665" type="curve" smooth="yes"/>
      <point x="460" y="665" type="line" smooth="yes"/>
      <point x="484" y="665"/>
      <point x="490" y="650"/>
      <point x="474" y="628" type="curve" smooth="yes"/>
      <point x="391" y="516"/>
      <point x="214" y="256"/>
    </contour>
    <contour>
      <point x="82" y="0" type="line"/>
      <point x="590" y="0" type="line"/>
      <point x="638" y="212" type="line"/>
      <point x="607" y="219" type="line"/>
      <point x="576" y="141"/>
      <point x="513" y="35"/>
      <point x="453" y="35" type="curve" smooth="yes"/>
      <point x="82" y="35" type="line"/>
    </contour>
  </outline>
</glyph>
<glyph name="b" format="2">
  <advance width="547"/>
  <unicode hex="0062"/>
  <anchor x="274" y="435" name="top"/>
  <anchor x="274" y="0" name="bottom"/>
  <anchor x="137" y="560" name="center"/>
  <outline>
    <contour>
      <point x="242" y="-12" type="curve" smooth="yes"/>
      <point x="400" y="-12"/>
      <point x="511" y="97"/>
      <point x="511" y="251" type="curve" smooth="yes"/>
      <point x="511" y="366"/>
      <point x="421" y="448"/>
      <point x="293" y="448" type="curve" smooth="yes"/>
      <point x="237" y="448"/>
      <point x="168" y="430"/>
      <point x="126" y="404" type="curve"/>
      <point x="134" y="372" type="line"/>
      <point x="168" y="394"/>
      <point x="218" y="410"/>
      <point x="253" y="410" type="curve" smooth="yes"/>
      <point x="345" y="410"/>
      <point x="413" y="335"/>
      <point x="413" y="227" type="curve" smooth="yes"/>
      <point x="413" y="110"/>
      <point x="356" y="28"/>
      <point x="280" y="28" type="curve" smooth="yes"/>
      <point x="213" y="28"/>
      <point x="148" y="70"/>
      <point x="124" y="129" type="curve"/>
      <point x="74" y="46" type="line"/>
      <point x="102" y="12"/>
      <point x="172" y="-12"/>
    </contour>
    <contour>
      <point x="74" y="46" type="curve"/>
      <point x="163" y="26" type="line"/>
      <point x="163" y="636" type="line"/>
      <point x="165" y="700" type="line"/>
      <point x="160" y="708" type="line"/>
      <point x="113" y="690"/>
      <point x="67" y="675"/>
      <point x="20" y="663" type="curve"/>
      <point x="20" y="647" type="line"/>
      <point x="57" y="647"/>
      <point x="82" y="628"/>
      <point x="82" y="602" type="curve"/>
      <point x="86" y="451"/>
      <point x="82" y="300"/>
      <point x="82" y="149" type="curve"/>
      <point x="82" y="100"/>
      <point x="79" y="58"/>
    </contour>
  </outline>
</glyph>
<glyph name="c" format="2">
  <advance width="428"/>
  <unicode hex="0063"/>
  <anchor x="214" y="435" name="top"/>
  <anchor x="214" y="0" name="bottom"/>
  <outline>
    <contour>
      <point x="224" y="-12" type="curve"/>
      <point x="286" y="-12"/>
      <point x="367" y="30"/>
      <point x="419" y="90" type="curve"/>
      <point x="399" y="110" type="line"/>
      <point x="367" y="77"/>
      <point x="316" y="54"/>
      <point x="275" y="54" type="curve" smooth="yes"/>
      <point x="181" y="54"/>
      <point x="115" y="128"/>
      <point x="115" y="233" type="curve" smooth="yes"/>
      <point x="115" y="333"/>
      <point x="165" y="409"/>
      <point x="235" y="409" type="curve" smooth="yes"/>
      <point x="318" y="409"/>
      <point x="295" y="340"/>
      <point x="340" y="340" type="curve" smooth="yes"/>
      <point x="371" y="340"/>
      <point x="393" y="355"/>
      <point x="393" y="376" type="curve" smooth="yes"/>
      <point x="393" y="418"/>
      <point x="348" y="447"/>
      <point x="284" y="447" type="curve" smooth="yes"/>
      <point x="139" y="447"/>
      <point x="36" y="338"/>
      <point x="36" y="192" type="curve"/>
      <point x="36" y="73"/>
      <point x="114" y="-12"/>
    </contour>
  </outline>
</glyph>
<glyph name="d" format="2">
  <advance width="553"/>
  <unicode hex="0064"/>
  <anchor x="277" y="435" name="top"/>
  <anchor x="277" y="0" name="bottom"/>
  <anchor x="415" y="560" name="center"/>
  <anchor x="533" y="700" name="topright"/>
  <outline>
    <contour>
      <point x="390" y="-12" type="line"/>
      <point x="556" y="7" type="line"/>
      <point x="553" y="36" type="line"/>
      <point x="531" y="32"/>
      <point x="506" y="29"/>
      <point x="491" y="29" type="curve" smooth="yes"/>
      <point x="474" y="29"/>
      <point x="462" y="42"/>
      <point x="462" y="64" type="curve"/>
      <point x="457" y="255"/>
      <point x="457" y="445"/>
      <point x="462" y="636" type="curve"/>
      <point x="465" y="700" type="line"/>
      <point x="458" y="708" type="line"/>
      <point x="309" y="700" type="line"/>
      <point x="309" y="673" type="line"/>
      <point x="311" y="673"/>
      <point x="323" y="673"/>
      <point x="325" y="673" type="curve" smooth="yes"/>
      <point x="358" y="673"/>
      <point x="381" y="656"/>
      <point x="381" y="631" type="curve" smooth="yes"/>
      <point x="381" y="48" type="line"/>
      <point x="388" y="0" type="line"/>
    </contour>
    <contour>
      <point x="273" y="-12" type="curve" smooth="yes"/>
      <point x="340" y="-12"/>
      <point x="402" y="33"/>
      <point x="423" y="96" type="curve"/>
      <point x="422" y="185" type="line"/>
      <point x="410" y="94"/>
      <point x="353" y="20"/>
      <point x="285" y="20" type="curve" smooth="yes"/>
      <point x="196" y="20"/>
      <point x="133" y="105"/>
      <point x="133" y="226" type="curve" smooth="yes"/>
      <point x="133" y="338"/>
      <point x="189" y="417"/>
      <point x="267" y="417" type="curve" smooth="yes"/>
      <point x="318" y="417"/>
      <point x="374" y="361"/>
      <point x="401" y="311" type="curve"/>
      <point x="401" y="407" type="line"/>
      <point x="371" y="430"/>
      <point x="321" y="447"/>
      <point x="279" y="447" type="curve" smooth="yes"/>
      <point x="137" y="447"/>
      <point x="36" y="353"/>
      <point x="36" y="219" type="curve" smooth="yes"/>
      <point x="36" y="84"/>
      <point x="134" y="-12"/>
    </contour>
  </outline>
</glyph>
<glyph name="f" format="2">
  <advance width="312"/>
  <unicode hex="0066"/>
  <anchor x="156" y="700" name="top"/>
  <anchor x="156" y="0" name="bottom"/>
  <outline>
    <contour>
      <point x="10" y="0" type="line"/>
      <point x="266" y="0" type="line"/>
      <point x="266" y="28" type="line"/>
      <point x="257" y="28"/>
      <point x="256" y="28"/>
      <point x="219" y="28" type="curve" smooth="yes"/>
      <point x="197" y="28"/>
      <point x="181" y="41"/>
      <point x="181" y="59" type="curve" smooth="yes"/>
      <point x="181" y="90"/>
      <point x="181" y="497"/>
      <point x="181" y="531" type="curve" smooth="yes"/>
      <point x="181" y="604"/>
      <point x="201" y="672"/>
      <point x="229" y="696" type="curve" smooth="yes"/>
      <point x="243" y="708"/>
      <point x="268" y="716"/>
      <point x="290" y="716" type="curve" smooth="yes"/>
      <point x="342" y="716"/>
      <point x="321" y="650"/>
      <point x="369" y="650" type="curve" smooth="yes"/>
      <point x="394" y="650"/>
      <point x="445" y="676"/>
      <point x="445" y="713" type="curve" smooth="yes"/>
      <point x="445" y="752"/>
      <point x="409" y="779"/>
      <point x="357" y="779" type="curve" smooth="yes"/>
      <point x="316" y="779"/>
      <point x="248" y="746"/>
      <point x="193" y="699" type="curve" smooth="yes"/>
      <point x="140" y="655"/>
      <point x="103" y="582"/>
      <point x="103" y="512" type="curve" smooth="yes"/>
      <point x="103" y="449"/>
      <point x="72" y="404"/>
      <point x="27" y="404" type="curve" smooth="yes"/>
      <point x="15" y="404" type="line"/>
      <point x="15" y="376" type="line"/>
      <point x="100" y="376" type="line"/>
      <point x="105" y="276"/>
      <point x="105" y="177"/>
      <point x="100" y="77" type="curve"/>
      <point x="100" y="48"/>
      <point x="81" y="28"/>
      <point x="55" y="28" type="curve" smooth="yes"/>
      <point x="10" y="28" type="line"/>
    </contour>
    <contour>
      <point x="170" y="376" type="line"/>
      <point x="303" y="376" type="line"/>
      <point x="303" y="435" type="line"/>
      <point x="170" y="435" type="line"/>
    </contour>
  </outline>
</glyph>
<glyph name="g" format="2">
  <advance width="510"/>
  <unicode hex="0067"/>
  <anchor x="255" y="435" name="top"/>
  <anchor x="255" y="-150" name="bottom"/>
  <outline>
    <contour>
      <point x="236" y="-316" type="curve" smooth="yes"/>
      <point x="387" y="-316"/>
      <point x="494" y="-220"/>
      <point x="494" y="-84" type="curve" smooth="yes"/>
      <point x="494" y="-2"/>
      <point x="421" y="56"/>
      <point x="317" y="56" type="curve" smooth="yes"/>
      <point x="252" y="56"/>
      <point x="195" y="56"/>
      <point x="175" y="56" type="curve" smooth="yes"/>
      <point x="141" y="56"/>
      <point x="117" y="70"/>
      <point x="117" y="90" type="curve" smooth="yes"/>
      <point x="117" y="104"/>
      <point x="143" y="126"/>
      <point x="179" y="142" type="curve"/>
      <point x="154" y="154" type="line"/>
      <point x="90" y="124"/>
      <point x="45" y="83"/>
      <point x="45" y="56" type="curve" smooth="yes"/>
      <point x="45" y="12"/>
      <point x="79" y="-19"/>
      <point x="126" y="-19" type="curve" smooth="yes"/>
      <point x="185" y="-19"/>
      <point x="307" y="-19"/>
      <point x="334" y="-19" type="curve" smooth="yes"/>
      <point x="387" y="-19"/>
      <point x="420" y="-54"/>
      <point x="420" y="-104" type="curve" smooth="yes"/>
      <point x="420" y="-207"/>
      <point x="354" y="-280"/>
      <point x="254" y="-280" type="curve" smooth="yes"/>
      <point x="157" y="-280"/>
      <point x="93" y="-225"/>
      <point x="93" y="-147" type="curve" smooth="yes"/>
      <point x="93" y="-98"/>
      <point x="139" y="-38"/>
      <point x="212" y="-1" type="curve"/>
      <point x="170" y="-1" type="line"/>
      <point x="170" y="7" type="line"/>
      <point x="80" y="-32"/>
      <point x="16" y="-107"/>
      <point x="16" y="-174" type="curve" smooth="yes"/>
      <point x="16" y="-257"/>
      <point x="107" y="-316"/>
    </contour>
    <contour>
      <point x="253" y="122" type="curve" smooth="yes"/>
      <point x="352" y="122"/>
      <point x="421" y="190"/>
      <point x="421" y="285" type="curve" smooth="yes"/>
      <point x="421" y="379"/>
      <point x="348" y="446"/>
      <point x="244" y="446" type="curve" smooth="yes"/>
      <point x="143" y="446"/>
      <point x="71" y="374"/>
      <point x="71" y="272" type="curve" smooth="yes"/>
      <point x="71" y="184"/>
      <point x="146" y="122"/>
    </contour>
    <contour>
      <point x="255" y="149" type="curve" smooth="yes"/>
      <point x="198" y="149"/>
      <point x="157" y="216"/>
      <point x="157" y="310" type="curve" smooth="yes"/>
      <point x="157" y="374"/>
      <point x="190" y="418"/>
      <point x="237" y="418" type="curve" smooth="yes"/>
      <point x="292" y="418"/>
      <point x="331" y="355"/>
      <point x="331" y="265" type="curve" smooth="yes"/>
      <point x="331" y="197"/>
      <point x="299" y="149"/>
    </contour>
    <contour>
      <point x="491" y="334" type="line"/>
      <point x="498" y="404" type="line"/>
      <point x="477" y="404"/>
      <point x="382" y="375"/>
      <point x="358" y="375" type="curve"/>
      <point x="366" y="355" type="line"/>
    </contour>
  </outline>
</glyph>
<glyph name="i" format="2">
  <advance width="272"/>
  <unicode hex="0069"/>
  <anchor x="136" y="0" name="bottom"/>
  <outline>
    <contour>
      <point x="45" y="0" type="line"/>
      <point x="253" y="0" type="line"/>
      <point x="253" y="28" type="line"/>
      <point x="245" y="28"/>
      <point x="215" y="28"/>
      <point x="208" y="28" type="curve" smooth="yes"/>
      <point x="192" y="28"/>
      <point x="181" y="40"/>
      <point x="181" y="57" type="curve"/>
      <point x="181" y="352" type="line"/>
      <point x="184" y="435" type="line"/>
      <point x="175" y="451" type="line"/>
      <point x="138" y="428"/>
      <point x="84" y="405"/>
      <point x="43" y="396" type="curve"/>
      <point x="43" y="378" type="line"/>
      <point x="76" y="378"/>
      <point x="100" y="356"/>
      <point x="100" y="324" type="curve"/>
      <point x="105" y="234"/>
      <point x="105" y="143"/>
      <point x="100" y="53" type="curve"/>
      <point x="100" y="38"/>
      <point x="85" y="28"/>
      <point x="64" y="28" type="curve" smooth="yes"/>
      <point x="45" y="28" type="line"/>
    </contour>
    <contour>
      <point x="140" y="596" type="curve" smooth="yes"/>
      <point x="168" y="596"/>
      <point x="188" y="615"/>
      <point x="188" y="641" type="curve" smooth="yes"/>
      <point x="188" y="667"/>
      <point x="168" y="686"/>
      <point x="140" y="686" type="curve" smooth="yes"/>
      <point x="112" y="686"/>
      <point x="92" y="667"/>
      <point x="92" y="641" type="curve" smooth="yes"/>
      <point x="92" y="615"/>
      <point x="112" y="596"/>
    </contour>
  </outline>
</glyph>
<glyph name="j" format="2">
  <advance width="263"/>
  <unicode hex="006A"/>
  <outline>
    <contour>
      <point x="-24" y="-233" type="curve"/>
      <point x="1" y="-262" type="line"/>
      <point x="106" y="-180"/>
      <point x="181" y="-76"/>
      <point x="181" y="-11" type="curve" smooth="yes"/>
      <point x="181" y="36"/>
      <point x="181" y="372"/>
      <point x="181" y="390" type="curve"/>
      <point x="183" y="435" type="line"/>
      <point x="180" y="443" type="line"/>
      <point x="42" y="405" type="line"/>
      <point x="45" y="392" type="line"/>
      <point x="77" y="392"/>
      <point x="100" y="375"/>
      <point x="100" y="351" type="curve"/>
      <point x="105" y="224"/>
      <point x="105" y="98"/>
      <point x="100" y="-29" type="curve"/>
      <point x="100" y="-87"/>
      <point x="49" y="-172"/>
    </contour>
    <contour>
      <point x="134" y="617" type="curve" smooth="yes"/>
      <point x="163" y="617"/>
      <point x="187" y="640"/>
      <point x="187" y="668" type="curve" smooth="yes"/>
      <point x="187" y="695"/>
      <point x="163" y="718"/>
      <point x="134" y="718" type="curve" smooth="yes"/>
      <point x="104" y="718"/>
      <point x="80" y="695"/>
      <point x="80" y="668" type="curve" smooth="yes"/>
      <point x="80" y="640"/>
      <point x="104" y="617"/>
    </contour>
  </outline>
</glyph>
<glyph name="k" format="2">
  <advance width="523"/>
  <unicode hex="006B"/>
  <anchor x="262" y="700" name="top"/>
  <anchor x="262" y="0" name="bottom"/>
  <outline>
    <contour>
      <point x="30" y="0" type="line"/>
      <point x="260" y="0" type="line"/>
      <point x="260" y="26" type="line"/>
      <point x="247" y="26"/>
      <point x="231" y="26"/>
      <point x="222" y="26" type="curve" smooth="yes"/>
      <point x="198" y="26"/>
      <point x="181" y="46"/>
      <point x="181" y="74" type="curve" smooth="yes"/>
      <point x="181" y="632" type="line"/>
      <point x="183" y="700" type="line"/>
      <point x="178" y="708" type="line"/>
      <point x="135" y="691"/>
      <point x="78" y="673"/>
      <point x="38" y="663" type="curve"/>
      <point x="38" y="647" type="line"/>
      <point x="74" y="647"/>
      <point x="100" y="629"/>
      <point x="100" y="604" type="curve"/>
      <point x="105" y="430"/>
      <point x="105" y="256"/>
      <point x="100" y="82" type="curve"/>
      <point x="100" y="49"/>
      <point x="83" y="26"/>
      <point x="60" y="26" type="curve" smooth="yes"/>
      <point x="30" y="26" type="line"/>
    </contour>
    <contour>
      <point x="290" y="0" type="line"/>
      <point x="523" y="0" type="line"/>
      <point x="523" y="28" type="line"/>
      <point x="518" y="28"/>
      <point x="503" y="28"/>
      <point x="498" y="28" type="curve" smooth="yes"/>
      <point x="493" y="28"/>
      <point x="451" y="35"/>
      <point x="422" y="71" type="curve" smooth="yes"/>
      <point x="257" y="280" type="line"/>
      <point x="203" y="239" type="line"/>
      <point x="251" y="182"/>
      <point x="294" y="121"/>
      <point x="334" y="56" type="curve" smooth="yes"/>
      <point x="354" y="24"/>
      <point x="339" y="28"/>
      <point x="325" y="28" type="curve" smooth="yes"/>
      <point x="290" y="28" type="line"/>
    </contour>
    <contour>
      <point x="144" y="171" type="line"/>
      <point x="394" y="365" type="line" smooth="yes"/>
      <point x="427" y="391"/>
      <point x="510" y="407"/>
      <point x="523" y="407" type="curve"/>
      <point x="523" y="435" type="line"/>
      <point x="324" y="435" type="line"/>
      <point x="324" y="407" type="line"/>
      <point x="330" y="407" type="line"/>
      <point x="349" y="407"/>
      <point x="389" y="399"/>
      <point x="341" y="362" type="curve" smooth="yes"/>
      <point x="144" y="211" type="line"/>
    </contour>
  </outline>
</glyph>
<glyph name="l" format="2">
  <advance width="267"/>
  <unicode hex="006C"/>
  <anchor x="134" y="700" name="top"/>
  <anchor x="134" y="0" name="bottom"/>
  <anchor x="134" y="218" name="center"/>
  <anchor x="247" y="700" name="topright"/>
  <outline>
    <contour>
      <point x="11" y="-1" type="line"/>
      <point x="270" y="-1" type="line"/>
      <point x="270" y="27" type="line"/>
      <point x="249" y="27" type="line" smooth="yes"/>
      <point x="206" y="27"/>
      <point x="176" y="51"/>
      <point x="176" y="86" type="curve" smooth="yes"/>
      <point x="176" y="647" type="line"/>
      <point x="179" y="700" type="line"/>
      <point x="174" y="708" type="line"/>
      <point x="28" y="663" type="line"/>
      <point x="28" y="647" type="line"/>
      <point x="65" y="647"/>
      <point x="91" y="628"/>
      <point x="91" y="601" type="curve" smooth="yes"/>
      <point x="96" y="421"/>
      <point x="96" y="240"/>
      <point x="91" y="60" type="curve" smooth="yes"/>
      <point x="91" y="41"/>
      <point x="70" y="27"/>
      <point x="40" y="27" type="curve" smooth="yes"/>
      <point x="11" y="27" type="line"/>
    </contour>
  </outline>
</glyph>
<glyph name="n" format="2">
  <advance width="566"/>
  <unicode hex="006E"/>
  <anchor x="283" y="435" name="top"/>
  <anchor x="283" y="0" name="bottom"/>
  <outline>
    <contour>
      <point x="319" y="1" type="line"/>
      <point x="561" y="1" type="line"/>
      <point x="561" y="32" type="line"/>
      <point x="500" y="32" type="line" smooth="yes"/>
      <point x="486" y="32"/>
      <point x="476" y="44"/>
      <point x="476" y="63" type="curve" smooth="yes"/>
      <point x="473" y="343" type="line" smooth="yes"/>
      <point x="473" y="404"/>
      <point x="424" y="447"/>
      <point x="354" y="447" type="curve" smooth="yes"/>
      <point x="287" y="447"/>
      <point x="199" y="408"/>
      <point x="141" y="353" type="curve"/>
      <point x="152" y="328" type="line"/>
      <point x="186" y="361"/>
      <point x="246" y="384"/>
      <point x="298" y="384" type="curve" smooth="yes"/>
      <point x="352" y="384"/>
      <point x="384" y="353"/>
      <point x="391" y="310" type="curve" smooth="yes"/>
      <point x="396" y="280"/>
      <point x="396" y="133"/>
      <point x="391" y="94" type="curve" smooth="yes"/>
      <point x="386" y="54"/>
      <point x="376" y="28"/>
      <point x="356" y="28" type="curve" smooth="yes"/>
      <point x="319" y="28" type="line"/>
    </contour>
    <contour>
      <point x="30" y="0" type="line"/>
      <point x="260" y="0" type="line"/>
      <point x="260" y="28" type="line"/>
      <point x="222" y="28" type="line" smooth="yes"/>
      <point x="198" y="28"/>
      <point x="184" y="46"/>
      <point x="184" y="74" type="curve" smooth="yes"/>
      <point x="184" y="382" type="line"/>
      <point x="183" y="435" type="line"/>
      <point x="168" y="448" type="line"/>
      <point x="143" y="434"/>
      <point x="100" y="414"/>
      <point x="59" y="402" type="curve"/>
      <point x="59" y="388" type="line"/>
      <point x="83" y="378"/>
      <point x="99" y="360"/>
      <point x="100" y="344" type="curve" smooth="yes"/>
      <point x="105" y="279"/>
      <point x="105" y="127"/>
      <point x="100" y="82" type="curve" smooth="yes"/>
      <point x="96" y="49"/>
      <point x="83" y="28"/>
      <point x="60" y="28" type="curve" smooth="yes"/>
      <point x="30" y="28" type="line"/>
    </contour>
  </outline>
</glyph>
<glyph name="o" format="2">
  <advance width="544"/>
  <unicode hex="006F"/>
  <anchor x="272" y="0" name="bottom"/>
  <anchor x="272" y="218" name="center"/>
  <anchor x="490" y="10" name="ogonek"/>
  <anchor x="272" y="435" name="top"/>
  <anchor x="524" y="435" name="topright"/>
  <outline>
    <contour>
      <point x="268" y="-12" type="curve" smooth="yes"/>
      <point x="409" y="-12"/>
      <point x="508" y="87"/>
      <point x="508" y="226" type="curve" smooth="yes"/>
      <point x="508" y="355"/>
      <point x="409" y="447"/>
      <point x="268" y="447" type="curve" smooth="yes"/>
      <point x="132" y="447"/>
      <point x="36" y="355"/>
      <point x="36" y="226" type="curve" smooth="yes"/>
      <point x="36" y="87"/>
      <point x="132" y="-12"/>
    </contour>
    <contour>
      <point x="285" y="19" type="curve" smooth="yes"/>
      <point x="197" y="19"/>
      <point x="136" y="103"/>
      <point x="136" y="222" type="curve" smooth="yes"/>
      <point x="136" y="335"/>
      <point x="186" y="415"/>
      <point x="254" y="416" type="curve" smooth="yes"/>
      <point x="346" y="416"/>
      <point x="409" y="331"/>
      <point x="409" y="211" type="curve" smooth="yes"/>
      <point x="409" y="100"/>
      <point x="356" y="20"/>
    </contour>
  </outline>
</glyph>
<glyph name="p" format="2">
  <advance width="538"/>
  <unicode hex="0070"/>
  <anchor x="269" y="435" name="top"/>
  <anchor x="269" y="0" name="bottom"/>
  <outline>
    <contour>
      <point x="16" y="-290" type="line"/>
      <point x="300" y="-290" type="line"/>
      <point x="300" y="-262" type="line"/>
      <point x="216" y="-262" type="line"/>
      <point x="190" y="-262"/>
      <point x="172" y="-245"/>
      <point x="172" y="-221" type="curve" smooth="yes"/>
      <point x="172" y="386" type="line"/>
      <point x="173" y="435" type="line"/>
      <point x="168" y="447" type="line"/>
      <point x="126" y="425"/>
      <point x="72" y="406"/>
      <point x="31" y="400" type="curve"/>
      <point x="31" y="381" type="line"/>
      <point x="66" y="381"/>
      <point x="91" y="352"/>
      <point x="91" y="310" type="curve"/>
      <point x="96" y="140"/>
      <point x="96" y="-29"/>
      <point x="91" y="-199" type="curve"/>
      <point x="91" y="-236"/>
      <point x="68" y="-262"/>
      <point x="35" y="-262" type="curve" smooth="yes"/>
      <point x="16" y="-262" type="line"/>
    </contour>
    <contour>
      <point x="262" y="-12" type="curve" smooth="yes"/>
      <point x="403" y="-12"/>
      <point x="502" y="97"/>
      <point x="502" y="251" type="curve" smooth="yes"/>
      <point x="502" y="363"/>
      <point x="422" y="447"/>
      <point x="310" y="447" type="curve" smooth="yes"/>
      <point x="252" y="447"/>
      <point x="175" y="415"/>
      <point x="124" y="370" type="curve"/>
      <point x="142" y="349" type="line"/>
      <point x="172" y="377"/>
      <point x="219" y="397"/>
      <point x="254" y="397" type="curve" smooth="yes"/>
      <point x="337" y="397"/>
      <point x="406" y="324"/>
      <point x="406" y="227" type="curve" smooth="yes"/>
      <point x="406" y="105"/>
      <point x="336" y="28"/>
      <point x="253" y="28" type="curve" smooth="yes"/>
      <point x="212" y="28"/>
      <point x="170" y="49"/>
      <point x="151" y="79" type="curve"/>
      <point x="151" y="34" type="line"/>
      <point x="181" y="7"/>
      <point x="227" y="-12"/>
    </contour>
  </outline>
</glyph>
<glyph name="q" format="2">
  <advance width="546"/>
  <unicode hex="0071"/>
  <anchor x="273" y="435" name="top"/>
  <anchor x="273" y="0" name="bottom"/>
  <outline>
    <contour>
      <point x="254" y="-12" type="curve" smooth="yes"/>
      <point x="310" y="-12"/>
      <point x="379" y="6"/>
      <point x="421" y="32" type="curve"/>
      <point x="413" y="64" type="line"/>
      <point x="379" y="42"/>
      <point x="329" y="26"/>
      <point x="294" y="26" type="curve" smooth="yes"/>
      <point x="202" y="26"/>
      <point x="134" y="117"/>
      <point x="134" y="249" type="curve" smooth="yes"/>
      <point x="134" y="342"/>
      <point x="187" y="409"/>
      <point x="257" y="409" type="curve" smooth="yes"/>
      <point x="331" y="409"/>
      <point x="400" y="364"/>
      <point x="423" y="327" type="curve"/>
      <point x="423" y="417" type="line"/>
      <point x="395" y="435"/>
      <point x="345" y="448"/>
      <point x="304" y="448" type="curve" smooth="yes"/>
      <point x="147" y="448"/>
      <point x="36" y="356"/>
      <point x="36" y="225" type="curve" smooth="yes"/>
      <point x="36" y="86"/>
      <point x="126" y="-12"/>
    </contour>
    <contour>
      <point x="297" y="-282" type="line"/>
      <point x="542" y="-282" type="line"/>
      <point x="542" y="-255" type="line"/>
      <point x="527" y="-255" type="line" smooth="yes"/>
      <point x="490" y="-255"/>
      <point x="464" y="-236"/>
      <point x="464" y="-210" type="curve" smooth="yes"/>
      <point x="459" y="-30"/>
      <point x="459" y="150"/>
      <point x="464" y="330" type="curve" smooth="yes"/>
      <point x="464" y="379"/>
      <point x="468" y="421"/>
      <point x="473" y="433" type="curve"/>
      <point x="466" y="444" type="line"/>
      <point x="385" y="410" type="line"/>
      <point x="385" y="-210" type="line" smooth="yes"/>
      <point x="385" y="-236"/>
      <point x="364" y="-254"/>
      <point x="335" y="-254" type="curve" smooth="yes"/>
      <point x="297" y="-254" type="line"/>
    </contour>
  </outline>
</glyph>
<glyph name="s" format="2">
  <advance width="355"/>
  <unicode hex="0073"/>
  <anchor x="178" y="435" name="top"/>
  <anchor x="178" y="0" name="bottom"/>
  <outline>
    <contour>
      <point x="156" y="-15" type="curve" smooth="yes"/>
      <point x="251" y="-15"/>
      <point x="319" y="50"/>
      <point x="319" y="137" type="curve" smooth="yes"/>
      <point x="319" y="267"/>
      <point x="96" y="264"/>
      <point x="96" y="360" type="curve" smooth="yes"/>
      <point x="96" y="397"/>
      <point x="130" y="418"/>
      <point x="178" y="418" type="curve" smooth="yes"/>
      <point x="224" y="418"/>
      <point x="247" y="397"/>
      <point x="247" y="366" type="curve" smooth="yes"/>
      <point x="247" y="360"/>
      <point x="245" y="353"/>
      <point x="245" y="348" type="curve" smooth="yes"/>
      <point x="245" y="344"/>
      <point x="264" y="342"/>
      <point x="291" y="342" type="curve" smooth="yes"/>
      <point x="300" y="342"/>
      <point x="307" y="352"/>
      <point x="307" y="365" type="curve" smooth="yes"/>
      <point x="307" y="415"/>
      <point x="261" y="451"/>
      <point x="197" y="451" type="curve" smooth="yes"/>
      <point x="103" y="451"/>
      <point x="37" y="398"/>
      <point x="37" y="316" type="curve" smooth="yes"/>
      <point x="37" y="173"/>
      <point x="253" y="184"/>
      <point x="253" y="104" type="curve" smooth="yes"/>
      <point x="253" y="56"/>
      <point x="220" y="18"/>
      <point x="173" y="18" type="curve" smooth="yes"/>
      <point x="120" y="18"/>
      <point x="92" y="46"/>
      <point x="92" y="87" type="curve" smooth="yes"/>
      <point x="92" y="94"/>
      <point x="94" y="98"/>
      <point x="94" y="107" type="curve" smooth="yes"/>
      <point x="94" y="114"/>
      <point x="76" y="119"/>
      <point x="50" y="119" type="curve" smooth="yes"/>
      <point x="42" y="119"/>
      <point x="36" y="108"/>
      <point x="36" y="93" type="curve" smooth="yes"/>
      <point x="36" y="30"/>
      <point x="86" y="-15"/>
    </contour>
  </outline>
</glyph>
<glyph name="t" format="2">
  <advance width="354"/>
  <unicode hex="0074"/>
  <anchor x="177" y="514" name="top"/>
  <anchor x="177" y="0" name="bottom"/>
  <anchor x="177" y="218" name="center"/>
  <anchor x="334" y="700" name="topright"/>
  <outline>
    <contour>
      <point x="202" y="-12" type="curve" smooth="yes"/>
      <point x="265" y="-12"/>
      <point x="324" y="24"/>
      <point x="345" y="74" type="curve"/>
      <point x="325" y="90" type="line"/>
      <point x="303" y="63"/>
      <point x="267" y="44"/>
      <point x="237" y="44" type="curve" smooth="yes"/>
      <point x="194" y="44"/>
      <point x="163" y="78"/>
      <point x="163" y="125" type="curve" smooth="yes"/>
      <point x="163" y="377" type="line"/>
      <point x="321" y="377" type="line"/>
      <point x="321" y="435" type="line"/>
      <point x="167" y="435" type="line"/>
      <point x="167" y="502" type="line"/>
      <point x="153" y="514" type="line"/>
      <point x="115" y="463"/>
      <point x="62" y="418"/>
      <point x="24" y="405" type="curve"/>
      <point x="24" y="377" type="line"/>
      <point x="81" y="377" type="line"/>
      <point x="84" y="278"/>
      <point x="81" y="179"/>
      <point x="81" y="82" type="curve" smooth="yes"/>
      <point x="81" y="27"/>
      <point x="132" y="-12"/>
    </contour>
  </outline>
</glyph>
<glyph name="u" format="2">
  <advance width="553"/>
  <unicode hex="0075"/>
  <anchor x="277" y="0" name="bottom"/>
  <anchor x="498" y="10" name="ogonek"/>
  <anchor x="277" y="435" name="top"/>
  <anchor x="533" y="435" name="topright"/>
  <outline>
    <contour>
      <point x="211" y="-14" type="curve" smooth="yes"/>
      <point x="264" y="-14"/>
      <point x="348" y="21"/>
      <point x="414" y="78" type="curve"/>
      <point x="407" y="107" type="line"/>
      <point x="355" y="68"/>
      <point x="298" y="45"/>
      <point x="270" y="45" type="curve" smooth="yes"/>
      <point x="213" y="45"/>
      <point x="174" y="81"/>
      <point x="172" y="118" type="curve" smooth="yes"/>
      <point x="167" y="224"/>
      <point x="167" y="329"/>
      <point x="172" y="435" type="curve"/>
      <point x="12" y="435" type="line"/>
      <point x="12" y="407" type="line"/>
      <point x="20" y="407"/>
      <point x="24" y="407"/>
      <point x="36" y="407" type="curve" smooth="yes"/>
      <point x="68" y="407"/>
      <point x="91" y="385"/>
      <point x="91" y="353" type="curve"/>
      <point x="91" y="266"/>
      <point x="91" y="178"/>
      <point x="91" y="91" type="curve" smooth="yes"/>
      <point x="91" y="35"/>
      <point x="141" y="-14"/>
    </contour>
    <contour>
      <point x="374" y="-11" type="line"/>
      <point x="539" y="17" type="line"/>
      <point x="534" y="44" type="line"/>
      <point x="517" y="40"/>
      <point x="493" y="38"/>
      <point x="476" y="38" type="curve" smooth="yes"/>
      <point x="463" y="38"/>
      <point x="453" y="52"/>
      <point x="453" y="71" type="curve" smooth="yes"/>
      <point x="453" y="90"/>
      <point x="453" y="354"/>
      <point x="453" y="372" type="curve"/>
      <point x="457" y="423" type="line"/>
      <point x="450" y="435" type="line"/>
      <point x="264" y="435" type="line"/>
      <point x="264" y="407" type="line"/>
      <point x="278" y="407"/>
      <point x="293" y="407"/>
      <point x="306" y="407" type="curve" smooth="yes"/>
      <point x="345" y="407"/>
      <point x="371" y="387"/>
      <point x="372" y="358" type="curve" smooth="yes"/>
      <point x="377" y="259"/>
      <point x="377" y="160"/>
      <point x="372" y="61" type="curve"/>
      <point x="368" y="0" type="line"/>
    </contour>
  </outline>
</glyph>
<glyph name="v" format="2">
  <advance width="504"/>
  <unicode hex="0076"/>
  <anchor x="252" y="435" name="top"/>
  <anchor x="252" y="0" name="bottom"/>
  <outline>
    <contour>
      <point x="230" y="-15" type="curve"/>
      <point x="241" y="-15" type="line"/>
      <point x="292" y="115"/>
      <point x="379" y="323"/>
      <point x="395" y="365" type="curve" smooth="yes"/>
      <point x="411" y="407"/>
      <point x="491" y="407"/>
      <point x="504" y="407" type="curve"/>
      <point x="504" y="435" type="line"/>
      <point x="305" y="435" type="line"/>
      <point x="305" y="407" type="line"/>
      <point x="331" y="407" type="line"/>
      <point x="362" y="407"/>
      <point x="374" y="388"/>
      <point x="362" y="362" type="curve"/>
      <point x="256" y="118" type="line"/>
      <point x="225" y="199"/>
      <point x="174" y="337"/>
      <point x="158" y="379" type="curve" smooth="yes"/>
      <point x="146" y="411"/>
      <point x="184" y="407"/>
      <point x="198" y="407" type="curve" smooth="yes"/>
      <point x="233" y="407" type="line"/>
      <point x="233" y="435" type="line"/>
      <point x="0" y="435" type="line"/>
      <point x="0" y="407" type="line"/>
      <point x="5" y="407"/>
      <point x="20" y="407"/>
      <point x="25" y="407" type="curve" smooth="yes"/>
      <point x="30" y="407"/>
      <point x="62" y="405"/>
      <point x="76" y="364" type="curve"/>
      <point x="131" y="239"/>
      <point x="183" y="112"/>
    </contour>
  </outline>
</glyph>
<glyph name="w" format="2">
  <advance width="760"/>
  <unicode hex="0077"/>
  <anchor x="380" y="435" name="top"/>
  <anchor x="380" y="0" name="bottom"/>
  <outline>
    <contour>
      <point x="76" y="364" type="curve"/>
      <point x="245" y="-15" type="line"/>
      <point x="261" y="-15" type="line"/>
      <point x="312" y="115"/>
      <point x="379" y="323"/>
      <point x="395" y="365" type="curve" smooth="yes"/>
      <point x="411" y="407"/>
      <point x="471" y="407"/>
      <point x="484" y="407" type="curve"/>
      <point x="484" y="435" type="line"/>
      <point x="305" y="435" type="line"/>
      <point x="305" y="407" type="line"/>
      <point x="310" y="407"/>
      <point x="324" y="407"/>
      <point x="331" y="407" type="curve"/>
      <point x="350" y="407"/>
      <point x="381" y="420"/>
      <point x="362" y="362" type="curve" smooth="yes"/>
      <point x="282" y="118" type="line"/>
      <point x="164" y="379" type="line"/>
      <point x="152" y="411"/>
      <point x="184" y="407"/>
      <point x="198" y="407" type="curve" smooth="yes"/>
      <point x="233" y="407" type="line"/>
      <point x="233" y="435" type="line"/>
      <point x="0" y="435" type="line"/>
      <point x="0" y="407" type="line"/>
      <point x="5" y="407"/>
      <point x="20" y="407"/>
      <point x="25" y="407" type="curve" smooth="yes"/>
      <point x="30" y="407"/>
      <point x="62" y="405"/>
    </contour>
    <contour>
      <point x="337" y="364" type="curve"/>
      <point x="471" y="-15" type="line"/>
      <point x="487" y="-15" type="line"/>
      <point x="538" y="115"/>
      <point x="635" y="323"/>
      <point x="651" y="365" type="curve" smooth="yes"/>
      <point x="667" y="407"/>
      <point x="747" y="407"/>
      <point x="760" y="407" type="curve"/>
      <point x="760" y="435" type="line"/>
      <point x="561" y="435" type="line"/>
      <point x="561" y="407" type="line"/>
      <point x="566" y="407"/>
      <point x="580" y="407"/>
      <point x="587" y="407" type="curve"/>
      <point x="617" y="407"/>
      <point x="630" y="388"/>
      <point x="618" y="362" type="curve" smooth="yes"/>
      <point x="508" y="118" type="line"/>
      <point x="420" y="379" type="line"/>
      <point x="408" y="411"/>
      <point x="440" y="407"/>
      <point x="454" y="407" type="curve" smooth="yes"/>
      <point x="489" y="407" type="line"/>
      <point x="489" y="435" type="line"/>
      <point x="291" y="435" type="line"/>
      <point x="291" y="407" type="line"/>
      <point x="296" y="407"/>
      <point x="301" y="407"/>
      <point x="306" y="407" type="curve" smooth="yes"/>
      <point x="311" y="407"/>
      <point x="323" y="405"/>
    </contour>
  </outline>
</glyph>
<glyph name="x" format="2">
  <advance width="504"/>
  <unicode hex="0078"/>
  <anchor x="252" y="435" name="top"/>
  <anchor x="252" y="0" name="bottom"/>
  <outline>
    <contour>
      <point x="76" y="364" type="curve" smooth="yes"/>
      <point x="210" y="216" type="line"/>
      <point x="304" y="216" type="line"/>
      <point x="164" y="379" type="line" smooth="yes"/>
      <point x="141" y="406"/>
      <point x="184" y="407"/>
      <point x="198" y="407" type="curve" smooth="yes"/>
      <point x="233" y="407" type="line"/>
      <point x="233" y="435" type="line"/>
      <point x="0" y="435" type="line"/>
      <point x="0" y="407" type="line"/>
      <point x="5" y="407"/>
      <point x="20" y="407"/>
      <point x="25" y="407" type="curve" smooth="yes"/>
      <point x="30" y="407"/>
      <point x="47" y="396"/>
    </contour>
    <contour>
      <point x="0" y="28" type="curve"/>
      <point x="0" y="0" type="line"/>
      <point x="199" y="0" type="line"/>
      <point x="199" y="28" type="line"/>
      <point x="194" y="28"/>
      <point x="190" y="28"/>
      <point x="183" y="28" type="curve"/>
      <point x="164" y="28"/>
      <point x="113" y="26"/>
      <point x="152" y="73" type="curve" smooth="yes"/>
      <point x="270" y="217" type="line"/>
      <point x="228" y="217" type="line"/>
      <point x="109" y="70" type="line" smooth="yes"/>
      <point x="81" y="35"/>
      <point x="13" y="28"/>
    </contour>
    <contour>
      <point x="271" y="0" type="line"/>
      <point x="504" y="0" type="line"/>
      <point x="504" y="28" type="line"/>
      <point x="499" y="28"/>
      <point x="484" y="28"/>
      <point x="479" y="28" type="curve" smooth="yes"/>
      <point x="474" y="28"/>
      <point x="456" y="38"/>
      <point x="428" y="71" type="curve" smooth="yes"/>
      <point x="304" y="216" type="line"/>
      <point x="210" y="216" type="line"/>
      <point x="340" y="56" type="line" smooth="yes"/>
      <point x="362" y="29"/>
      <point x="320" y="28"/>
      <point x="306" y="28" type="curve" smooth="yes"/>
      <point x="271" y="28" type="line"/>
    </contour>
    <contour>
      <point x="352" y="362" type="curve" smooth="yes"/>
      <point x="237" y="222" type="line"/>
      <point x="279" y="222" type="line"/>
      <point x="395" y="365" type="line" smooth="yes"/>
      <point x="423" y="400"/>
      <point x="491" y="407"/>
      <point x="504" y="407" type="curve"/>
      <point x="504" y="435" type="line"/>
      <point x="305" y="435" type="line"/>
      <point x="305" y="407" type="line"/>
      <point x="310" y="407"/>
      <point x="314" y="407"/>
      <point x="321" y="407" type="curve"/>
      <point x="340" y="407"/>
      <point x="390" y="409"/>
    </contour>
  </outline>
</glyph>
<glyph name="y" format="2">
  <advance width="495"/>
  <unicode hex="0079"/>
  <anchor x="248" y="435" name="top"/>
  <anchor x="248" y="0" name="bottom"/>
  <outline>
    <contour>
      <point x="112" y="-278" type="curve" smooth="yes"/>
      <point x="152" y="-278"/>
      <point x="193" y="-243"/>
      <point x="211" y="-193" type="curve" smooth="yes"/>
      <point x="246" y="-96"/>
      <point x="262" y="-64"/>
      <point x="290" y="13" type="curve"/>
      <point x="418" y="359" type="line"/>
      <point x="429" y="388"/>
      <point x="461" y="409"/>
      <point x="495" y="409" type="curve"/>
      <point x="495" y="435" type="line"/>
      <point x="302" y="435" type="line"/>
      <point x="302" y="407" type="line"/>
      <point x="346" y="407" type="line"/>
      <point x="371" y="407"/>
      <point x="381" y="386"/>
      <point x="370" y="357" type="curve" smooth="yes"/>
      <point x="274" y="92" type="line"/>
      <point x="167" y="352" type="line"/>
      <point x="156" y="384"/>
      <point x="177" y="407"/>
      <point x="217" y="407" type="curve"/>
      <point x="230" y="407" type="line"/>
      <point x="230" y="435" type="line"/>
      <point x="0" y="435" type="line"/>
      <point x="0" y="407" type="line"/>
      <point x="15" y="407" type="line"/>
      <point x="34" y="407"/>
      <point x="53" y="396"/>
      <point x="60" y="381" type="curve"/>
      <point x="112" y="274"/>
      <point x="187" y="107"/>
      <point x="242" y="-23" type="curve"/>
      <point x="250" y="69" type="line"/>
      <point x="234" y="-17"/>
      <point x="194" y="-124"/>
      <point x="194" y="-124" type="curve" smooth="yes"/>
      <point x="182" y="-163"/>
      <point x="157" y="-190"/>
      <point x="134" y="-190" type="curve" smooth="yes"/>
      <point x="106" y="-190"/>
      <point x="115" y="-176"/>
      <point x="92" y="-176" type="curve" smooth="yes"/>
      <point x="71" y="-176"/>
      <point x="56" y="-193"/>
      <point x="56" y="-217" type="curve" smooth="yes"/>
      <point x="56" y="-253"/>
      <point x="79" y="-278"/>
    </contour>
  </outline>
</glyph>
<glyph name="z" format="2">
  <advance width="418"/>
  <unicode hex="007A"/>
  <anchor x="209" y="435" name="top"/>
  <anchor x="209" y="0" name="bottom"/>
  <anchor x="209" y="218" name="center"/>
  <outline>
    <contour>
      <point x="281" y="387" type="curve"/>
      <point x="20" y="0" type="line"/>
      <point x="193" y="0" type="line"/>
      <point x="193" y="30" type="line"/>
      <point x="154" y="30" type="line" smooth="yes"/>
      <point x="146" y="30"/>
      <point x="144" y="39"/>
      <point x="150" y="51" type="curve"/>
      <point x="224" y="167"/>
      <point x="301" y="281"/>
      <point x="383" y="395" type="curve"/>
      <point x="383" y="435" type="line"/>
      <point x="81" y="435" type="line"/>
      <point x="42" y="289" type="line"/>
      <point x="76" y="281" type="line"/>
      <point x="97" y="354"/>
      <point x="129" y="405"/>
      <point x="154" y="405" type="curve" smooth="yes"/>
      <point x="277" y="405" type="line" smooth="yes"/>
      <point x="286" y="405"/>
      <point x="288" y="398"/>
    </contour>
    <contour>
      <point x="48" y="0" type="line"/>
      <point x="373" y="0" type="line"/>
      <point x="406" y="143" type="line"/>
      <point x="372" y="150" type="line"/>
      <point x="362" y="80"/>
      <point x="325" y="30"/>
      <point x="283" y="30" type="curve" smooth="yes"/>
      <point x="230" y="30" type="line"/>
      <point x="94" y="30" type="line"/>
      <point x="48" y="30" type="line"/>
    </contour>
  </outline>
</glyph>
<glyph name="AE" format="2">
  <advance width="988"/>
  <unicode hex="00C6"/>
  <anchor x="494" y="700" name="top"/>
  <anchor x="494" y="0" name="bottom"/>
  <outline>
    <contour>
      <point x="690" y="-2" type="curve" smooth="yes"/>
      <point x="850" y="0" type="line"/>
      <point x="943" y="131" type="line"/>
      <point x="922" y="149" type="line"/>
      <point x="860" y="82"/>
      <point x="805" y="34"/>
      <point x="776" y="34" type="curve" smooth="yes"/>
      <point x="733" y="34"/>
      <point x="665" y="34"/>
      <point x="644" y="34" type="curve" smooth="yes"/>
      <point x="607" y="34"/>
      <point x="580" y="56"/>
      <point x="580" y="86" type="curve" smooth="yes"/>
      <point x="580" y="116"/>
      <point x="580" y="623"/>
      <point x="580" y="635" type="curve" smooth="yes"/>
      <point x="580" y="653"/>
      <point x="604" y="665"/>
      <point x="637" y="665" type="curve" smooth="yes"/>
      <point x="657" y="665"/>
      <point x="701" y="665"/>
      <point x="718" y="665" type="curve" smooth="yes"/>
      <point x="759" y="665"/>
      <point x="817" y="613"/>
      <point x="859" y="539" type="curve"/>
      <point x="883" y="552" type="line"/>
      <point x="816" y="700" type="line"/>
      <point x="717" y="700"/>
      <point x="630" y="698"/>
      <point x="531" y="698" type="curve" smooth="yes"/>
      <point x="483" y="698"/>
      <point x="324" y="700"/>
      <point x="271" y="700" type="curve"/>
      <point x="271" y="672" type="line"/>
      <point x="322" y="672"/>
      <point x="395" y="672"/>
      <point x="423" y="672" type="curve" smooth="yes"/>
      <point x="456" y="672"/>
      <point x="480" y="661"/>
      <point x="480" y="633" type="curve" smooth="yes"/>
      <point x="480" y="559"/>
      <point x="480" y="147"/>
      <point x="480" y="106" type="curve" smooth="yes"/>
      <point x="480" y="60"/>
      <point x="459" y="28"/>
      <point x="429" y="28" type="curve" smooth="yes"/>
      <point x="397" y="28" type="line"/>
      <point x="397" y="0" type="line"/>
      <point x="438" y="0"/>
      <point x="490" y="2"/>
      <point x="526" y="2" type="curve" smooth="yes"/>
      <point x="562" y="2"/>
      <point x="650" y="-2"/>
    </contour>
    <contour>
      <point x="18" y="0" type="line"/>
      <point x="304" y="0" type="line"/>
      <point x="304" y="28" type="line"/>
      <point x="286" y="28" type="line"/>
      <point x="248" y="28"/>
      <point x="220" y="58"/>
      <point x="234" y="98" type="curve"/>
      <point x="471" y="686" type="line"/>
      <point x="437" y="689" type="line"/>
      <point x="288" y="371"/>
      <point x="210" y="212"/>
      <point x="184" y="156" type="curve" smooth="yes"/>
      <point x="150" y="83"/>
      <point x="94" y="28"/>
      <point x="45" y="28" type="curve" smooth="yes"/>
      <point x="18" y="28" type="line"/>
    </contour>
    <contour>
      <point x="773" y="200" type="curve"/>
      <point x="800" y="200" type="line"/>
      <point x="796" y="271"/>
      <point x="796" y="371"/>
      <point x="800" y="442" type="curve"/>
      <point x="772" y="442" type="line"/>
      <point x="772" y="379"/>
      <point x="746" y="334"/>
      <point x="709" y="334" type="curve" smooth="yes"/>
      <point x="290" y="334" type="line"/>
      <point x="289" y="304" type="line"/>
      <point x="352" y="304"/>
      <point x="684" y="304"/>
      <point x="709" y="304" type="curve" smooth="yes"/>
      <point x="746" y="304"/>
      <point x="773" y="261"/>
    </contour>
  </outline>
</glyph>
<glyph name="germandbls" format="2">
  <advance width="585"/>
  <unicode hex="00DF"/>
  <anchor x="293" y="700" name="top"/>
  <anchor x="293" y="0" name="bottom"/>
  <outline>
    <contour>
      <point x="10" y="0" type="line"/>
      <point x="179" y="0" type="line"/>
      <point x="181" y="59" type="line"/>
      <point x="181" y="531" type="line" smooth="yes"/>
      <point x="181" y="604"/>
      <point x="205" y="668"/>
      <point x="233" y="692" type="curve" smooth="yes"/>
      <point x="247" y="704"/>
      <point x="268" y="716"/>
      <point x="290" y="716" type="curve"/>
      <point x="357" y="779" type="line"/>
      <point x="316" y="779"/>
      <point x="248" y="746"/>
      <point x="193" y="699" type="curve" smooth="yes"/>
      <point x="140" y="655"/>
      <point x="103" y="582"/>
      <point x="103" y="512" type="curve" smooth="yes"/>
      <point x="103" y="449"/>
      <point x="72" y="404"/>
      <point x="27" y="404" type="curve" smooth="yes"/>
      <point x="15" y="404" type="line"/>
      <point x="15" y="376" type="line"/>
      <point x="100" y="376" type="line"/>
      <point x="100" y="77" type="line" smooth="yes"/>
      <point x="100" y="48"/>
      <point x="81" y="28"/>
      <point x="55" y="28" type="curve" smooth="yes"/>
      <point x="10" y="28" type="line"/>
    </contour>
    <contour>
      <point x="386" y="-12" type="curve" smooth="yes"/>
      <point x="481" y="-12"/>
      <point x="549" y="49"/>
      <point x="549" y="136" type="curve" smooth="yes"/>
      <point x="549" y="249"/>
      <point x="346" y="278"/>
      <point x="346" y="374" type="curve" smooth="yes"/>
      <point x="346" y="440"/>
      <point x="500" y="504"/>
      <point x="500" y="612" type="curve" smooth="yes"/>
      <point x="500" y="710"/>
      <point x="441" y="779"/>
      <point x="357" y="779" type="curve"/>
      <point x="290" y="716" type="line"/>
      <point x="359" y="716"/>
      <point x="408" y="655"/>
      <point x="408" y="568" type="curve" smooth="yes"/>
      <point x="408" y="445"/>
      <point x="287" y="454"/>
      <point x="287" y="327" type="curve" smooth="yes"/>
      <point x="287" y="193"/>
      <point x="483" y="180"/>
      <point x="483" y="100" type="curve" smooth="yes"/>
      <point x="483" y="52"/>
      <point x="450" y="18"/>
      <point x="403" y="18" type="curve" smooth="yes"/>
      <point x="350" y="18"/>
      <point x="312" y="47"/>
      <point x="312" y="88" type="curve" smooth="yes"/>
      <point x="312" y="95"/>
      <point x="314" y="101"/>
      <point x="314" y="110" type="curve" smooth="yes"/>
      <point x="314" y="117"/>
      <point x="300" y="122"/>
      <point x="280" y="122" type="curve" smooth="yes"/>
      <point x="272" y="122"/>
      <point x="266" y="111"/>
      <point x="266" y="96" type="curve" smooth="yes"/>
      <point x="266" y="33"/>
      <point x="316" y="-12"/>
    </contour>
  </outline>
</glyph>
<glyph name="OE" format="2">
  <advance width="1202"/>
  <unicode hex="0152"/>
  <anchor x="601" y="700" name="top"/>
  <anchor x="601" y="0" name="bottom"/>
  <outline>
    <contour>
      <point x="403" y="-11" type="curve" smooth="yes"/>
      <point x="609" y="-11"/>
      <point x="754" y="136"/>
      <point x="754" y="345" type="curve" smooth="yes"/>
      <point x="754" y="564"/>
      <point x="610" y="719"/>
      <point x="406" y="719" type="curve" smooth="yes"/>
      <point x="206" y="719"/>
      <point x="64" y="564"/>
      <point x="64" y="345" type="curve" smooth="yes"/>
      <point x="64" y="136"/>
      <point x="204" y="-11"/>
    </contour>
    <contour>
      <point x="420" y="19" type="curve"/>
      <point x="287" y="19"/>
      <point x="193" y="171"/>
      <point x="193" y="385" type="curve" smooth="yes"/>
      <point x="193" y="563"/>
      <point x="278" y="689"/>
      <point x="399" y="689" type="curve" smooth="yes"/>
      <point x="531" y="689"/>
      <point x="625" y="530"/>
      <point x="625" y="306" type="curve" smooth="yes"/>
      <point x="625" y="138"/>
      <point x="540" y="19"/>
    </contour>
    <contour>
      <point x="962" y="200" type="curve"/>
      <point x="989" y="200" type="line"/>
      <point x="985" y="277"/>
      <point x="985" y="385"/>
      <point x="989" y="462" type="curve"/>
      <point x="961" y="462" type="line"/>
      <point x="961" y="399"/>
      <point x="935" y="354"/>
      <point x="898" y="354" type="curve" smooth="yes"/>
      <point x="689" y="354" type="line"/>
      <point x="698" y="304" type="line"/>
      <point x="761" y="304"/>
      <point x="883" y="304"/>
      <point x="908" y="304" type="curve" smooth="yes"/>
      <point x="940" y="304"/>
      <point x="962" y="261"/>
    </contour>
    <contour>
      <point x="564" y="54" type="curve"/>
      <point x="494" y="-1" type="line"/>
      <point x="1078" y="-1" type="line"/>
      <point x="1157" y="163" type="line"/>
      <point x="1132" y="178" type="line"/>
      <point x="1088" y="105"/>
      <point x="1024" y="54"/>
      <point x="977" y="54" type="curve" smooth="yes"/>
      <point x="965" y="54"/>
      <point x="614" y="54"/>
    </contour>
    <contour>
      <point x="495" y="700" type="curve"/>
      <point x="525" y="645" type="line"/>
      <point x="562" y="645"/>
      <point x="937" y="645"/>
      <point x="945" y="645" type="curve" smooth="yes"/>
      <point x="1006" y="645"/>
      <point x="1050" y="598"/>
      <point x="1050" y="531" type="curve"/>
      <point x="1078" y="531" type="line"/>
      <point x="1078" y="700" type="line"/>
      <point x="1011" y="700"/>
      <point x="546" y="700"/>
    </contour>
  </outline>
</glyph>
<glyph name="uni0308" format="2">
  <advance width="0"/>
  <unicode hex="0308"/>
  <anchor x="150" y="435" name="_top"/>
  <anchor x="150" y="626" name="top"/>
  <outline>
    <contour>
      <point x="65" y="536" type="curve" smooth="yes"/>
      <point x="93" y="536"/>
      <point x="113" y="555"/>
      <point x="113" y="581" type="curve" smooth="yes"/>
      <point x="113" y="607"/>
      <point x="93" y="626"/>
      <point x="65" y="626" type="curve" smooth="yes"/>
      <point x="37" y="626"/>
      <point x="17" y="607"/>
      <point x="17" y="581" type="curve" smooth="yes"/>
      <point x="17" y="555"/>
      <point x="37" y="536"/>
    </contour>
    <contour>
      <point x="235" y="536" type="curve" smooth="yes"/>
      <point x="263" y="536"/>
      <point x="283" y="555"/>
      <point x="283" y="581" type="curve" smooth="yes"/>
      <point x="283" y="607"/>
      <point x="263" y="626"/>
      <point x="235" y="626" type="curve" smooth="yes"/>
      <point x="207" y="626"/>
      <point x="187" y="607"/>
      <point x="187" y="581" type="curve" smooth="yes"/>
      <point x="187" y="555"/>
      <point x="207" y="536"/>
    </contour>
  </outline>
</glyph>
<glyph name="c_t" format="2">
  <advance width="782"/>
  <anchor x="196" y="435" name="top_1"/>
  <anchor x="587" y="435" name="top_2"/>
  <anchor x="196" y="0" name="bottom_1"/>
  <anchor x="587" y="0" name="bottom_2"/>
  <anchor x="391" y="0" name="caret_1"/>
  <outline>
    <contour>
      <point x="224" y="-12" type="curve"/>
      <point x="286" y="-12"/>
      <point x="367" y="30"/>
      <point x="419" y="90" type="curve"/>
      <point x="399" y="110" type="line"/>
      <point x="367" y="77"/>
      <point x="316" y="54"/>
      <point x="275" y="54" type="curve" smooth="yes"/>
      <point x="181" y="54"/>
      <point x="115" y="128"/>
      <point x="115" y="233" type="curve" smooth="yes"/>
      <point x="115" y="333"/>
      <point x="165" y="409"/>
      <point x="235" y="409" type="curve" smooth="yes"/>
      <point x="318" y="409"/>
      <point x="295" y="340"/>
      <point x="340" y="340" type="curve" smooth="yes"/>
      <point x="371" y="340"/>
      <point x="393" y="355"/>
      <point x="393" y="376" type="curve" smooth="yes"/>
      <point x="393" y="418"/>
      <point x="348" y="447"/>
      <point x="284" y="447" type="curve" smooth="yes"/>
      <point x="139" y="447"/>
      <point x="36" y="338"/>
      <point x="36" y="192" type="curve"/>
      <point x="36" y="73"/>
      <point x="114" y="-12"/>
    </contour>
    <contour>
      <point x="630" y="-12" type="curve" smooth="yes"/>
      <point x="693" y="-12"/>
      <point x="752" y="24"/>
      <point x="773" y="74" type="curve"/>
      <point x="753" y="90" type="line"/>
      <point x="731" y="63"/>
      <point x="695" y="44"/>
      <point x="665" y="44" type="curve" smooth="yes"/>
      <point x="622" y="44"/>
      <point x="591" y="78"/>
      <point x="591" y="125" type="curve" smooth="yes"/>
      <point x="591" y="377" type="line"/>
      <point x="749" y="377" type="line"/>
      <point x="749" y="435" type="line"/>
      <point x="595" y="435" type="line"/>
      <point x="595" y="502" type="line"/>
      <point x="581" y="514" type="line"/>
      <point x="543" y="463"/>
      <point x="490" y="418"/>
      <point x="452" y="405" type="curve"/>
      <point x="452" y="377" type="line"/>
      <point x="510" y="377" type="line"/>
      <point x="510" y="286"/>
      <point x="510" y="100"/>
      <point x="510" y="82" type="curve" smooth="yes"/>
      <point x="510" y="27"/>
      <point x="560" y="-12"/>
    </contour>
    <contour>
      <point x="332" y="374" type="curve"/>
      <point x="367" y="424" type="line"/>
      <point x="325" y="453"/>
      <point x="296" y="502"/>
      <point x="296" y="543" type="curve" smooth="yes"/>
      <point x="296" y="610"/>
      <point x="351" y="658"/>
      <point x="429" y="658" type="curve" smooth="yes"/>
      <point x="504" y="658"/>
      <point x="556" y="611"/>
      <point x="555" y="544" type="curve" smooth="yes"/>
      <point x="555" y="484"/>
      <point x="512" y="426"/>
      <point x="452" y="405" type="curve"/>
      <point x="595" y="435" type="line"/>
      <point x="597" y="544" type="line"/>
      <point x="597" y="635"/>
      <point x="527" y="700"/>
      <point x="429" y="700" type="curve" smooth="yes"/>
      <point x="327" y="700"/>
      <point x="254" y="635"/>
      <point x="254" y="544" type="curve" smooth="yes"/>
      <point x="254" y="475"/>
      <point x="286" y="405"/>
    </contour>
  </outline>
</glyph>
<glyph name="s.hist" format="2">
  <advance width="312"/>
  <anchor x="156" y="435" name="top"/>
  <anchor x="156" y="0" name="bottom"/>
  <outline>
    <contour>
      <point x="20" y="0" type="line"/>
      <point x="276" y="0" type="line"/>
      <point x="276" y="28" type="line"/>
      <point x="267" y="28"/>
      <point x="266" y="28"/>
      <point x="229" y="28" type="curve" smooth="yes"/>
      <point x="207" y="28"/>
      <point x="191" y="41"/>
      <point x="191" y="59" type="curve" smooth="yes"/>
      <point x="191" y="90"/>
      <point x="191" y="497"/>
      <point x="191" y="531" type="curve" smooth="yes"/>
      <point x="191" y="604"/>
      <point x="215" y="668"/>
      <point x="243" y="692" type="curve" smooth="yes"/>
      <point x="257" y="704"/>
      <point x="278" y="716"/>
      <point x="300" y="716" type="curve" smooth="yes"/>
      <point x="352" y="716"/>
      <point x="331" y="650"/>
      <point x="379" y="650" type="curve" smooth="yes"/>
      <point x="404" y="650"/>
      <point x="455" y="676"/>
      <point x="455" y="713" type="curve" smooth="yes"/>
      <point x="455" y="752"/>
      <point x="419" y="779"/>
      <point x="367" y="779" type="curve" smooth="yes"/>
      <point x="326" y="779"/>
      <point x="258" y="746"/>
      <point x="203" y="699" type="curve" smooth="yes"/>
      <point x="150" y="655"/>
      <point x="113" y="582"/>
      <point x="113" y="512" type="curve" smooth="yes"/>
      <point x="113" y="449"/>
      <point x="82" y="404"/>
      <point x="37" y="404" type="curve" smooth="yes"/>
      <point x="25" y="404" type="line"/>
      <point x="25" y="376" type="line"/>
      <point x="110" y="376" type="line"/>
      <point x="115" y="276"/>
      <point x="115" y="177"/>
      <point x="110" y="77" type="curve"/>
      <point x="110" y="48"/>
      <point x="91" y="28"/>
      <point x="65" y="28" type="curve" smooth="yes"/>
      <point x="20" y="28" type="line"/>
    </contour>
  </outline>
</glyph>
<glyph name="s_t" format="2">
  <advance width="714"/>
  <anchor x="357" y="0" name="caret_1"/>
  <outline>
    <contour>
      <point x="562" y="-12" type="curve" smooth="yes"/>
      <point x="625" y="-12"/>
      <point x="684" y="24"/>
      <point x="705" y="74" type="curve"/>
      <point x="685" y="90" type="line"/>
      <point x="663" y="63"/>
      <point x="627" y="44"/>
      <point x="597" y="44" type="curve" smooth="yes"/>
      <point x="554" y="44"/>
      <point x="523" y="78"/>
      <point x="523" y="125" type="curve" smooth="yes"/>
      <point x="523" y="377" type="line"/>
      <point x="681" y="377" type="line"/>
      <point x="681" y="435" type="line"/>
      <point x="527" y="435" type="line"/>
      <point x="527" y="502" type="line"/>
      <point x="513" y="514" type="line"/>
      <point x="475" y="463"/>
      <point x="422" y="418"/>
      <point x="384" y="405" type="curve"/>
      <point x="384" y="377" type="line"/>
      <point x="442" y="377" type="line"/>
      <point x="442" y="82" type="line" smooth="yes"/>
      <point x="442" y="27"/>
      <point x="492" y="-12"/>
    </contour>
    <contour>
      <point x="156" y="-15" type="curve" smooth="yes"/>
      <point x="251" y="-15"/>
      <point x="319" y="49"/>
      <point x="319" y="139" type="curve" smooth="yes"/>
      <point x="319" y="269"/>
      <point x="96" y="266"/>
      <point x="96" y="362" type="curve" smooth="yes"/>
      <point x="96" y="393"/>
      <point x="130" y="415"/>
      <point x="178" y="415" type="curve" smooth="yes"/>
      <point x="218" y="415"/>
      <point x="247" y="395"/>
      <point x="247" y="366" type="curve" smooth="yes"/>
      <point x="247" y="360"/>
      <point x="245" y="353"/>
      <point x="245" y="348" type="curve" smooth="yes"/>
      <point x="245" y="344"/>
      <point x="264" y="342"/>
      <point x="291" y="342" type="curve" smooth="yes"/>
      <point x="300" y="342"/>
      <point x="307" y="352"/>
      <point x="307" y="365" type="curve" smooth="yes"/>
      <point x="307" y="415"/>
      <point x="261" y="451"/>
      <point x="197" y="451" type="curve" smooth="yes"/>
      <point x="103" y="451"/>
      <point x="37" y="394"/>
      <point x="37" y="314" type="curve" smooth="yes"/>
      <point x="37" y="171"/>
      <point x="253" y="182"/>
      <point x="253" y="102" type="curve" smooth="yes"/>
      <point x="253" y="55"/>
      <point x="220" y="21"/>
      <point x="173" y="21" type="curve" smooth="yes"/>
      <point x="126" y="21"/>
      <point x="92" y="48"/>
      <point x="92" y="87" type="curve" smooth="yes"/>
      <point x="92" y="94"/>
      <point x="94" y="98"/>
      <point x="94" y="107" type="curve" smooth="yes"/>
      <point x="94" y="114"/>
      <point x="76" y="119"/>
      <point x="50" y="119" type="curve" smooth="yes"/>
      <point x="42" y="119"/>
      <point x="36" y="108"/>
      <point x="36" y="93" type="curve" smooth="yes"/>
      <point x="36" y="30"/>
      <point x="86" y="-15"/>
    </contour>
    <contour>
      <point x="384" y="405" type="curve"/>
      <point x="527" y="435" type="line"/>
      <point x="529" y="544" type="line" smooth="yes"/>
      <point x="529" y="635"/>
      <point x="455" y="700"/>
      <point x="351" y="700" type="curve" smooth="yes"/>
      <point x="243" y="700"/>
      <point x="166" y="635"/>
      <point x="166" y="544" type="curve" smooth="yes"/>
      <point x="166" y="510"/>
      <point x="177" y="464"/>
      <point x="193" y="433" type="curve"/>
      <point x="279" y="424" type="line"/>
      <point x="237" y="453"/>
      <point x="208" y="502"/>
      <point x="208" y="543" type="curve" smooth="yes"/>
      <point x="208" y="610"/>
      <point x="267" y="658"/>
      <point x="351" y="658" type="curve" smooth="yes"/>
      <point x="432" y="658"/>
      <point x="488" y="611"/>
      <point x="487" y="544" type="curve" smooth="yes"/>
      <point x="487" y="484"/>
      <point x="444" y="426"/>
    </contour>
  </outline>
</glyph>
